<svg xmlns="http://www.w3.org/2000/svg" width="27.214" height="27.214" viewBox="0 0 27.214 27.214">
  <path id="icons8-linkedin" d="M27.19,3H6.024A3.023,3.023,0,0,0,3,6.024V27.19a3.023,3.023,0,0,0,3.024,3.024H27.19a3.023,3.023,0,0,0,3.024-3.024V6.024A3.023,3.023,0,0,0,27.19,3ZM12.071,24.167H8.257V13.583h3.815ZM10.1,11.644A1.807,1.807,0,0,1,8.153,9.829a1.848,1.848,0,0,1,2.073-1.814A1.807,1.807,0,0,1,12.17,9.829,1.848,1.848,0,0,1,10.1,11.644ZM25.679,24.167H21.987V18.382c0-1.6-.984-1.969-1.353-1.969s-1.6.246-1.6,1.969v5.785H15.219V13.583h3.815V15.06c.491-.862,1.476-1.477,3.322-1.477s3.323,1.477,3.323,4.8Z" transform="translate(-3 -3)" fill="#ececec"/>
</svg>
