<?xml version="1.0" standalone="no"?>
<!DOCTYPE svg PUBLIC "-//W3C//DTD SVG 20010904//EN"
 "http://www.w3.org/TR/2001/REC-SVG-20010904/DTD/svg10.dtd">
<svg version="1.0" xmlns="http://www.w3.org/2000/svg"
 width="142.000000pt" height="142.000000pt" viewBox="0 0 142.000000 142.000000"
 preserveAspectRatio="xMidYMid meet">
<metadata>
Created by potrace 1.14, written by Peter Selinger 2001-2017
</metadata>
<g transform="translate(0.000000,142.000000) scale(0.100000,-0.100000)"
fill="#000000" stroke="none">
<path d="M578 1155 c-1 -1 -34 -5 -73 -9 -131 -10 -239 -37 -297 -73 l-38 -23
24 -53 c63 -142 70 -196 44 -316 -23 -103 -31 -278 -17 -341 46 -200 230 -324
488 -329 206 -4 385 86 460 230 48 91 55 237 20 415 -26 135 -22 185 26 304
20 50 35 93 33 94 -58 38 -149 69 -238 81 -30 4 -64 9 -75 12 -24 5 -352 13
-357 8z m397 -75 c84 -13 184 -40 190 -51 3 -4 -8 -48 -25 -98 -36 -107 -38
-154 -11 -281 28 -133 25 -295 -7 -365 -56 -123 -190 -200 -369 -212 -200 -14
-376 64 -440 194 -37 76 -36 72 -36 198 1 70 8 144 20 204 24 114 21 158 -16
270 -16 47 -26 89 -23 93 9 9 116 37 172 44 127 17 178 20 320 18 85 -1 187
-7 225 -14z"/>
<path d="M635 883 c-78 -18 -155 -93 -155 -152 0 -19 6 -21 74 -21 64 0 74 3
79 19 8 32 52 54 92 47 38 -8 65 -45 65 -91 0 -24 -1 -25 -72 -25 -119 0 -192
-31 -232 -99 -35 -60 -20 -158 30 -202 63 -55 161 -65 237 -25 43 23 45 24 50
5 5 -17 15 -19 82 -19 76 0 77 0 70 23 -5 12 -10 103 -12 202 -2 99 -8 196
-13 216 -21 78 -106 129 -210 128 -36 -1 -74 -3 -85 -6z m155 -357 c0 -53 -21
-81 -70 -94 -71 -18 -116 23 -94 87 12 34 48 51 112 51 l52 0 0 -44z"/>
</g>
</svg>
