<svg xmlns="http://www.w3.org/2000/svg" width="27.213" height="27.214" viewBox="0 0 27.213 27.214">
  <path id="icons8-whatsapp" d="M25.237,5.984a13.594,13.594,0,0,0-21.393,16.4L2,29.214l7.121-1.683a13.581,13.581,0,0,0,6.495,1.655h.005a13.595,13.595,0,0,0,9.616-23.2ZM22.272,20.443a3.425,3.425,0,0,1-2.293,1.614c-.623.057-1.207.282-4.075-.849-3.452-1.361-5.632-4.9-5.8-5.126A6.6,6.6,0,0,1,8.716,12.57,3.8,3.8,0,0,1,9.906,9.738a1.246,1.246,0,0,1,.906-.425c.226,0,.453,0,.65.008.242.01.51.022.765.586.3.672.962,2.351,1.046,2.521a.627.627,0,0,1,.029.595,2.357,2.357,0,0,1-.339.566c-.17.2-.357.442-.509.595-.17.169-.347.354-.15.693a10.216,10.216,0,0,0,1.889,2.351,9.329,9.329,0,0,0,2.731,1.686c.34.17.537.142.736-.086s.849-.991,1.075-1.331.453-.283.765-.17,1.981.935,2.32,1.1.566.254.65.4A2.843,2.843,0,0,1,22.272,20.443Z" transform="translate(-2 -2)" fill="#ececec"/>
</svg>
