<svg xmlns="http://www.w3.org/2000/svg" width="326.179" height="321.552" viewBox="0 0 326.179 321.552">
  <g id="services-mobile" transform="translate(-447 -2059.358)">
    <g id="Group_556" data-name="Group 556" transform="translate(449 2301.718)">
      <path id="Path_882" data-name="Path 882" d="M1.312.976V12H3.7V.976ZM5.968,12h2.3V7.392c0-1.472.544-2.016,1.52-2.016,1.024,0,1.328.672,1.328,1.616V12h2.288V6.736c0-2.08-1.072-3.216-2.736-3.216a2.52,2.52,0,0,0-2.4,1.248c-.016-.256-.048-.832-.1-1.056H5.952c.016.624.016,1.392.016,2.1ZM14.64,5.44h1.28V9.792c0,1.456.528,2.32,2.144,2.32a4.974,4.974,0,0,0,1.536-.16V10.384c-.16.016-.384.016-.512.016-.688,0-.88-.24-.88-.864V5.44H19.84V3.712H18.208V1.472H15.92v2.24H14.64Zm13.9,2.912a4.843,4.843,0,0,0,.032-.7c0-2.064-.976-4.128-3.808-4.128-2.672,0-4,1.856-4,4.464,0,2.176,1.184,4.208,3.92,4.208A3.623,3.623,0,0,0,28.48,9.52H26.192a1.324,1.324,0,0,1-1.456.88c-1.136,0-1.664-1.008-1.664-2.048ZM23.12,6.944c.1-1.024.544-1.776,1.632-1.776,1.12,0,1.5.816,1.52,1.776ZM30.336,12h2.3V8.384c0-2.272.992-2.72,2.656-2.672V3.52A2.669,2.669,0,0,0,32.64,5.168c0-.448-.032-1.264-.064-1.456H30.32c.016.7.016,1.424.016,2.256Zm6.352,0h2.3V7.392c0-1.472.544-2.016,1.52-2.016,1.024,0,1.328.672,1.328,1.616V12h2.288V6.736c0-2.08-1.072-3.216-2.736-3.216a2.52,2.52,0,0,0-2.4,1.248c-.016-.256-.048-.832-.1-1.056H36.672c.016.624.016,1.392.016,2.1ZM53.616,8.352a4.842,4.842,0,0,0,.032-.7c0-2.064-.976-4.128-3.808-4.128-2.672,0-4,1.856-4,4.464,0,2.176,1.184,4.208,3.92,4.208A3.623,3.623,0,0,0,53.552,9.52H51.264a1.324,1.324,0,0,1-1.456.88c-1.136,0-1.664-1.008-1.664-2.048ZM48.192,6.944c.1-1.024.544-1.776,1.632-1.776,1.12,0,1.5.816,1.52,1.776ZM61.7.32h-2.3V12h2.3V9.344L62.752,8.32l2.1,3.68H67.44L64.288,6.848l2.88-3.136H64.544C63.392,5.1,62.3,6.384,61.7,7.216ZM75.52,6.384C75.52,4.4,74.3,3.536,72.1,3.52c-2.528,0-3.44,1.184-3.552,2.656H70.72c.1-.608.32-1.008,1.28-1.008,1.072,0,1.28.576,1.28,1.168v.5H72.1c-2.432,0-3.936.88-3.936,2.768a2.551,2.551,0,0,0,2.832,2.592,2.45,2.45,0,0,0,2.336-1.008A3.243,3.243,0,0,0,73.44,12h2.192a18.446,18.446,0,0,1-.112-2.144ZM73.28,8.448c0,1.088-.176,2.112-1.632,2.112a1.069,1.069,0,0,1-1.2-1.1c0-.8.512-1.232,1.9-1.232h.928ZM77.76,12h2.3V7.392c0-1.472.544-2.016,1.52-2.016,1.024,0,1.328.672,1.328,1.616V12H85.2V6.736c0-2.08-1.072-3.216-2.736-3.216a2.52,2.52,0,0,0-2.4,1.248c-.016-.256-.048-.832-.1-1.056H77.744c.016.624.016,1.392.016,2.1Zm8.672-6.56h1.28V9.792c0,1.456.528,2.32,2.144,2.32a4.974,4.974,0,0,0,1.536-.16V10.384c-.16.016-.384.016-.512.016-.688,0-.88-.24-.88-.864V5.44h1.632V3.712H90V1.472H87.712v2.24h-1.28Zm10.3-1.92c-2.624,0-4.176,1.808-4.176,4.368,0,2.464,1.5,4.3,4.064,4.3,2.624,0,4.128-1.84,4.128-4.352C100.752,5.248,99.168,3.52,96.736,3.52Zm-.1,1.808c1.152,0,1.792.816,1.792,2.544,0,1.584-.624,2.528-1.76,2.528-1.1,0-1.792-.944-1.792-2.544C94.88,6.112,95.584,5.328,96.64,5.328Zm9.632-1.808c-2.624,0-4.176,1.808-4.176,4.368,0,2.464,1.5,4.3,4.064,4.3,2.624,0,4.128-1.84,4.128-4.352C110.288,5.248,108.7,3.52,106.272,3.52Zm-.1,1.808c1.152,0,1.792.816,1.792,2.544,0,1.584-.624,2.528-1.76,2.528-1.1,0-1.792-.944-1.792-2.544C104.416,6.112,105.12,5.328,106.176,5.328ZM112.016,12h2.3V8.384c0-2.272.992-2.72,2.656-2.672V3.52a2.669,2.669,0,0,0-2.656,1.648c0-.448-.032-1.264-.064-1.456H112c.016.7.016,1.424.016,2.256Zm13.072-5.616c0-1.984-1.216-2.848-3.424-2.864-2.528,0-3.44,1.184-3.552,2.656h2.176c.1-.608.32-1.008,1.28-1.008,1.072,0,1.28.576,1.28,1.168v.5h-1.184c-2.432,0-3.936.88-3.936,2.768a2.551,2.551,0,0,0,2.832,2.592,2.45,2.45,0,0,0,2.336-1.008,3.243,3.243,0,0,0,.112.816H125.2a18.446,18.446,0,0,1-.112-2.144Zm-2.24,2.064c0,1.088-.176,2.112-1.632,2.112a1.069,1.069,0,0,1-1.2-1.1c0-.8.512-1.232,1.9-1.232h.928ZM134.56,3.712h-2.288V8.128c0,1.632-.432,2.192-1.472,2.192-.992,0-1.28-.752-1.28-1.664V3.712h-2.288V9.12c0,2.048,1.072,3.072,2.752,3.072a2.367,2.367,0,0,0,2.288-1.152c.016.288.032.736.064.96h2.24c-.016-.736-.016-1.616-.016-2.4ZM142.16.32v4c-.176-.368-.816-.8-2.016-.8-2.352,0-3.76,1.856-3.76,4.4,0,2.592,1.328,4.272,3.424,4.272a2.494,2.494,0,0,0,2.352-1.056c.016.192.064.608.112.864h2.192c-.016-.752-.016-1.52-.016-2.272V.32Zm-3.424,7.552c0-1.568.608-2.512,1.808-2.512,1.5,0,1.712,1.072,1.712,2.5,0,1.184-.192,2.5-1.76,2.5C139.36,10.352,138.736,9.488,138.736,7.872ZM146.64,12h2.3V3.712h-2.3Zm2.3-9.632V.32h-2.3V2.368Zm1.408,3.072h1.28V9.792c0,1.456.528,2.32,2.144,2.32a4.974,4.974,0,0,0,1.536-.16V10.384c-.16.016-.384.016-.512.016-.688,0-.88-.24-.88-.864V5.44h1.632V3.712H153.92V1.472h-2.288v2.24h-1.28ZM156.5,9.5c.192,1.472,1.216,2.688,3.744,2.688,2.512,0,3.568-1.248,3.568-2.624,0-1.216-.4-2.16-3.168-2.8-1.344-.32-1.6-.512-1.6-.928,0-.368.256-.7,1.008-.7,1.072,0,1.28.576,1.36.88h2.176c-.064-1.12-.928-2.5-3.44-2.5-2.5,0-3.344,1.3-3.344,2.512,0,1.168.432,2,3.136,2.672,1.184.288,1.536.5,1.536,1.024,0,.512-.3.816-1.152.816a1.436,1.436,0,0,1-1.568-1.04Z" transform="translate(48.395)" fill="#fff"/>
      <path id="Path_877" data-name="Path 877" d="M0,0H40.47" transform="translate(0 6.682)" fill="none" stroke="#11c6ff" stroke-linecap="square" stroke-width="4"/>
    </g>
    <g id="Group_557" data-name="Group 557" transform="translate(449 2335.718)">
      <path id="Path_889" data-name="Path 889" d="M5.552,12c.592-2.224,1.584-5.936,1.984-7.9h.016c.384,1.888,1.36,5.456,1.936,7.9h2.48L14.944.976h-2.3c-.4,1.712-1.472,5.984-1.84,8.416h-.016C10.416,7.36,9.312,3.088,8.736.976H6.592C5.952,3.632,4.88,7.472,4.464,9.5H4.448C4.32,8.288,3.856,6.032,2.816.976H.272L3.088,12ZM22.976,8.352a4.843,4.843,0,0,0,.032-.7c0-2.064-.976-4.128-3.808-4.128-2.672,0-4,1.856-4,4.464,0,2.176,1.184,4.208,3.92,4.208A3.623,3.623,0,0,0,22.912,9.52H20.624a1.324,1.324,0,0,1-1.456.88c-1.136,0-1.664-1.008-1.664-2.048ZM17.552,6.944c.1-1.024.544-1.776,1.632-1.776,1.12,0,1.5.816,1.52,1.776ZM24.768,12h2.3V8.384c0-2.272.992-2.72,2.656-2.672V3.52a2.669,2.669,0,0,0-2.656,1.648c0-.448-.032-1.264-.064-1.456H24.752c.016.7.016,1.424.016,2.256ZM33.472.32h-2.3V12h2.3V9.344L34.528,8.32l2.1,3.68h2.592L36.064,6.848l2.88-3.136H36.32c-1.152,1.392-2.24,2.672-2.848,3.5Zm8.944,14.848v-3.9a2.315,2.315,0,0,0,2.1.928c2,0,3.6-1.616,3.6-4.544,0-2.56-1.424-4.128-3.3-4.128a2.606,2.606,0,0,0-2.4,1.232,9.511,9.511,0,0,0-.08-1.04H40.112c.016.672.016,1.328.016,2v9.456Zm3.376-7.424c0,1.68-.592,2.624-1.808,2.624-1.232,0-1.664-.912-1.664-2.5,0-1.664.464-2.512,1.76-2.512C45.184,5.36,45.792,6.224,45.792,7.744ZM52.16,12V.32h-2.3V12Zm9.5-3.648a4.842,4.842,0,0,0,.032-.7c0-2.064-.976-4.128-3.808-4.128-2.672,0-4,1.856-4,4.464,0,2.176,1.184,4.208,3.92,4.208A3.623,3.623,0,0,0,61.6,9.52H59.312a1.324,1.324,0,0,1-1.456.88c-1.136,0-1.664-1.008-1.664-2.048ZM56.24,6.944c.1-1.024.544-1.776,1.632-1.776,1.12,0,1.5.816,1.52,1.776ZM65.712.32h-2.3V12h2.3V9.344L66.768,8.32l2.1,3.68h2.592L68.3,6.848l2.88-3.136H68.56c-1.152,1.392-2.24,2.672-2.848,3.5ZM72.48,12h2.3V3.712h-2.3Zm2.3-9.632V.32h-2.3V2.368ZM77.008,12h2.3V7.392c0-1.472.544-2.016,1.52-2.016,1.024,0,1.328.672,1.328,1.616V12h2.288V6.736c0-2.08-1.072-3.216-2.736-3.216a2.52,2.52,0,0,0-2.4,1.248c-.016-.256-.048-.832-.1-1.056H76.992c.016.624.016,1.392.016,2.1Zm8.928-2.5c.192,1.472,1.216,2.688,3.744,2.688,2.512,0,3.568-1.248,3.568-2.624,0-1.216-.4-2.16-3.168-2.8-1.344-.32-1.6-.512-1.6-.928,0-.368.256-.7,1.008-.7,1.072,0,1.28.576,1.36.88h2.176c-.064-1.12-.928-2.5-3.44-2.5-2.5,0-3.344,1.3-3.344,2.512,0,1.168.432,2,3.136,2.672,1.184.288,1.536.5,1.536,1.024,0,.512-.3.816-1.152.816A1.436,1.436,0,0,1,88.192,9.5Zm11.216,5.664v-3.9a2.315,2.315,0,0,0,2.1.928c2,0,3.6-1.616,3.6-4.544,0-2.56-1.424-4.128-3.3-4.128a2.606,2.606,0,0,0-2.4,1.232,9.512,9.512,0,0,0-.08-1.04H94.848c.016.672.016,1.328.016,2v9.456Zm3.376-7.424c0,1.68-.592,2.624-1.808,2.624-1.232,0-1.664-.912-1.664-2.5,0-1.664.464-2.512,1.76-2.512C99.92,5.36,100.528,6.224,100.528,7.744Zm11.456.608a4.843,4.843,0,0,0,.032-.7c0-2.064-.976-4.128-3.808-4.128-2.672,0-4,1.856-4,4.464,0,2.176,1.184,4.208,3.92,4.208A3.623,3.623,0,0,0,111.92,9.52h-2.288a1.324,1.324,0,0,1-1.456.88c-1.136,0-1.664-1.008-1.664-2.048ZM106.56,6.944c.1-1.024.544-1.776,1.632-1.776,1.12,0,1.5.816,1.52,1.776ZM118.8,9.328a1.411,1.411,0,0,1-1.424,1.088c-.992,0-1.632-.8-1.632-2.576,0-1.6.592-2.512,1.648-2.512a1.3,1.3,0,0,1,1.424,1.136h2.224a3.262,3.262,0,0,0-3.6-2.944c-2.528,0-4.016,1.952-4.016,4.4,0,2.5,1.328,4.272,3.9,4.272a3.427,3.427,0,0,0,3.712-2.864Zm3.184-3.888h1.28V9.792c0,1.456.528,2.32,2.144,2.32a4.974,4.974,0,0,0,1.536-.16V10.384c-.16.016-.384.016-.512.016-.688,0-.88-.24-.88-.864V5.44h1.632V3.712h-1.632V1.472h-2.288v2.24h-1.28ZM128.608,12h2.3V3.712h-2.3Zm2.3-9.632V.32h-2.3V2.368Zm9.5,5.984a4.843,4.843,0,0,0,.032-.7c0-2.064-.976-4.128-3.808-4.128-2.672,0-4,1.856-4,4.464,0,2.176,1.184,4.208,3.92,4.208a3.623,3.623,0,0,0,3.792-2.672h-2.288a1.324,1.324,0,0,1-1.456.88c-1.136,0-1.664-1.008-1.664-2.048Zm-5.424-1.408c.1-1.024.544-1.776,1.632-1.776,1.12,0,1.5.816,1.52,1.776Zm6.656,2.56c.192,1.472,1.216,2.688,3.744,2.688,2.512,0,3.568-1.248,3.568-2.624,0-1.216-.4-2.16-3.168-2.8-1.344-.32-1.6-.512-1.6-.928,0-.368.256-.7,1.008-.7,1.072,0,1.28.576,1.36.88h2.176c-.064-1.12-.928-2.5-3.44-2.5-2.5,0-3.344,1.3-3.344,2.512,0,1.168.432,2,3.136,2.672,1.184.288,1.536.5,1.536,1.024,0,.512-.3.816-1.152.816A1.436,1.436,0,0,1,143.9,9.5Z" transform="translate(48.395)" fill="#fff"/>
      <path id="Path_878" data-name="Path 878" d="M0,0H40.47" transform="translate(0 7.488)" fill="none" stroke="#11c6ff" stroke-linecap="square" stroke-width="4"/>
    </g>
    <g id="Group_559" data-name="Group 559" transform="translate(449 2368.718)">
      <path id="Path_888" data-name="Path 888" d="M7.408,9.456,8.32,12h2.512L6.912.976H3.92L.176,12H2.528l.848-2.544ZM3.888,7.5c.624-2,1.168-3.728,1.44-4.816h.016c.272.992.768,2.48,1.552,4.816Zm7.744,2c.192,1.472,1.216,2.688,3.744,2.688,2.512,0,3.568-1.248,3.568-2.624,0-1.216-.4-2.16-3.168-2.8-1.344-.32-1.6-.512-1.6-.928,0-.368.256-.7,1.008-.7,1.072,0,1.28.576,1.36.88H18.72c-.064-1.12-.928-2.5-3.44-2.5-2.5,0-3.344,1.3-3.344,2.512,0,1.168.432,2,3.136,2.672,1.184.288,1.536.5,1.536,1.024,0,.512-.3.816-1.152.816A1.436,1.436,0,0,1,13.888,9.5Zm8.9-.208c0,.9,0,1.808-.016,2.7H22.7a3.751,3.751,0,0,0,.1-.784,2.239,2.239,0,0,0,2.176.976c2.384,0,3.6-2.112,3.6-4.48,0-2.32-1.12-4.192-3.376-4.192a2.59,2.59,0,0,0-2.368,1.072V.32h-2.3ZM26.256,7.76c0,1.568-.624,2.608-1.792,2.608-1.328,0-1.744-1.072-1.744-2.464,0-1.7.464-2.544,1.776-2.544C25.728,5.36,26.256,6.368,26.256,7.76Zm11.44.592a4.842,4.842,0,0,0,.032-.7c0-2.064-.976-4.128-3.808-4.128-2.672,0-4,1.856-4,4.464,0,2.176,1.184,4.208,3.92,4.208A3.623,3.623,0,0,0,37.632,9.52H35.344a1.324,1.324,0,0,1-1.456.88c-1.136,0-1.664-1.008-1.664-2.048ZM32.272,6.944c.1-1.024.544-1.776,1.632-1.776,1.12,0,1.5.816,1.52,1.776ZM38.928,9.5c.192,1.472,1.216,2.688,3.744,2.688,2.512,0,3.568-1.248,3.568-2.624,0-1.216-.4-2.16-3.168-2.8-1.344-.32-1.6-.512-1.6-.928,0-.368.256-.7,1.008-.7,1.072,0,1.28.576,1.36.88h2.176c-.064-1.12-.928-2.5-3.44-2.5-2.5,0-3.344,1.3-3.344,2.512,0,1.168.432,2,3.136,2.672,1.184.288,1.536.5,1.536,1.024,0,.512-.3.816-1.152.816A1.436,1.436,0,0,1,41.184,9.5Zm8.08-4.064h1.28V9.792c0,1.456.528,2.32,2.144,2.32a4.974,4.974,0,0,0,1.536-.16V10.384c-.16.016-.384.016-.512.016-.688,0-.88-.24-.88-.864V5.44h1.632V3.712H50.576V1.472H48.288v2.24h-1.28ZM58.928.32v4c-.176-.368-.816-.8-2.016-.8-2.352,0-3.76,1.856-3.76,4.4,0,2.592,1.328,4.272,3.424,4.272a2.494,2.494,0,0,0,2.352-1.056c.016.192.064.608.112.864h2.192c-.016-.752-.016-1.52-.016-2.272V.32ZM55.5,7.872c0-1.568.608-2.512,1.808-2.512,1.5,0,1.712,1.072,1.712,2.5,0,1.184-.192,2.5-1.76,2.5C56.128,10.352,55.5,9.488,55.5,7.872ZM67.1,3.52c-2.624,0-4.176,1.808-4.176,4.368,0,2.464,1.5,4.3,4.064,4.3,2.624,0,4.128-1.84,4.128-4.352C71.12,5.248,69.536,3.52,67.1,3.52Zm-.1,1.808c1.152,0,1.792.816,1.792,2.544,0,1.584-.624,2.528-1.76,2.528-1.1,0-1.792-.944-1.792-2.544C65.248,6.112,65.952,5.328,67.008,5.328Zm10.864,4a1.411,1.411,0,0,1-1.424,1.088c-.992,0-1.632-.8-1.632-2.576,0-1.6.592-2.512,1.648-2.512a1.3,1.3,0,0,1,1.424,1.136h2.224a3.262,3.262,0,0,0-3.6-2.944c-2.528,0-4.016,1.952-4.016,4.4,0,2.5,1.328,4.272,3.9,4.272a3.427,3.427,0,0,0,3.712-2.864ZM88.96,3.712H86.672V8.128c0,1.632-.432,2.192-1.472,2.192-.992,0-1.28-.752-1.28-1.664V3.712H81.632V9.12c0,2.048,1.072,3.072,2.752,3.072a2.367,2.367,0,0,0,2.288-1.152c.016.288.032.736.064.96h2.24c-.016-.736-.016-1.616-.016-2.4ZM91.184,12h2.272V7.376c0-1.424.448-2,1.376-2,.976,0,1.184.7,1.184,1.552V12h2.256V7.264c0-1.264.384-1.9,1.344-1.9.944,0,1.216.736,1.216,1.488V12h2.24V6.56c0-2.144-1.184-3.04-2.624-3.04a2.905,2.905,0,0,0-2.56,1.264A2.185,2.185,0,0,0,95.76,3.52a2.6,2.6,0,0,0-2.3,1.184c-.016-.32-.064-.784-.1-.992H91.168c.016.72.016,1.424.016,2.144Zm21.392-3.648a4.843,4.843,0,0,0,.032-.7c0-2.064-.976-4.128-3.808-4.128-2.672,0-4,1.856-4,4.464,0,2.176,1.184,4.208,3.92,4.208a3.623,3.623,0,0,0,3.792-2.672h-2.288a1.324,1.324,0,0,1-1.456.88c-1.136,0-1.664-1.008-1.664-2.048Zm-5.424-1.408c.1-1.024.544-1.776,1.632-1.776,1.12,0,1.5.816,1.52,1.776ZM114.384,12h2.3V7.392c0-1.472.544-2.016,1.52-2.016,1.024,0,1.328.672,1.328,1.616V12h2.288V6.736c0-2.08-1.072-3.216-2.736-3.216a2.52,2.52,0,0,0-2.4,1.248c-.016-.256-.048-.832-.1-1.056h-2.224c.016.624.016,1.392.016,2.1Zm8.672-6.56h1.28V9.792c0,1.456.528,2.32,2.144,2.32a4.974,4.974,0,0,0,1.536-.16V10.384c-.16.016-.384.016-.512.016-.688,0-.88-.24-.88-.864V5.44h1.632V3.712h-1.632V1.472h-2.288v2.24h-1.28ZM129.712,9.3c0,.9,0,1.808-.016,2.7h2.192a3.751,3.751,0,0,0,.1-.784,2.239,2.239,0,0,0,2.176.976c2.384,0,3.6-2.112,3.6-4.48,0-2.32-1.12-4.192-3.376-4.192a2.59,2.59,0,0,0-2.368,1.072V.32h-2.3ZM135.44,7.76c0,1.568-.624,2.608-1.792,2.608-1.328,0-1.744-1.072-1.744-2.464,0-1.7.464-2.544,1.776-2.544C134.912,5.36,135.44,6.368,135.44,7.76Zm11.44.592a4.843,4.843,0,0,0,.032-.7c0-2.064-.976-4.128-3.808-4.128-2.672,0-4,1.856-4,4.464,0,2.176,1.184,4.208,3.92,4.208a3.623,3.623,0,0,0,3.792-2.672h-2.288a1.324,1.324,0,0,1-1.456.88c-1.136,0-1.664-1.008-1.664-2.048Zm-5.424-1.408c.1-1.024.544-1.776,1.632-1.776,1.12,0,1.5.816,1.52,1.776ZM148.624.32V12h2.3V7.6c0-1.264.24-2.224,1.52-2.224.96,0,1.344.576,1.344,1.648V12h2.272V6.688c0-2.24-1.232-3.168-2.768-3.168A2.614,2.614,0,0,0,150.928,4.7V.32Zm16.96,8.032a4.843,4.843,0,0,0,.032-.7c0-2.064-.976-4.128-3.808-4.128-2.672,0-4,1.856-4,4.464,0,2.176,1.184,4.208,3.92,4.208A3.623,3.623,0,0,0,165.52,9.52h-2.288a1.324,1.324,0,0,1-1.456.88c-1.136,0-1.664-1.008-1.664-2.048ZM160.16,6.944c.1-1.024.544-1.776,1.632-1.776,1.12,0,1.5.816,1.52,1.776Zm14.608,1.408a4.843,4.843,0,0,0,.032-.7c0-2.064-.976-4.128-3.808-4.128-2.672,0-4,1.856-4,4.464,0,2.176,1.184,4.208,3.92,4.208A3.623,3.623,0,0,0,174.7,9.52h-2.288a1.324,1.324,0,0,1-1.456.88c-1.136,0-1.664-1.008-1.664-2.048Zm-5.424-1.408c.1-1.024.544-1.776,1.632-1.776,1.12,0,1.5.816,1.52,1.776ZM176.56,12h2.3V8.384c0-2.272.992-2.72,2.656-2.672V3.52a2.669,2.669,0,0,0-2.656,1.648c0-.448-.032-1.264-.064-1.456h-2.256c.016.7.016,1.424.016,2.256Z" transform="translate(47.395)" fill="#fff"/>
      <path id="Path_879" data-name="Path 879" d="M0,0H40.47" transform="translate(0 7.488)" fill="none" stroke="#11c6ff" stroke-linecap="square" stroke-width="4"/>
    </g>
    <g id="Group_556-2" data-name="Group 556" transform="translate(449 2101.718)">
      <path id="Path_2" data-name="Path 2" d="M0,0H40.47" transform="translate(0 9.262)" fill="none" stroke="#11c6ff" stroke-linecap="square" stroke-width="4"/>
      <path id="Path_887" data-name="Path 887" d="M1.312,12H3.7V7.232H8.144V12h2.384V.976H8.144V5.264H3.7V.976H1.312Zm11.52,0h2.3V3.712h-2.3Zm2.3-9.632V.32h-2.3V2.368ZM16.7,9.5c.192,1.472,1.216,2.688,3.744,2.688,2.512,0,3.568-1.248,3.568-2.624,0-1.216-.4-2.16-3.168-2.8-1.344-.32-1.6-.512-1.6-.928,0-.368.256-.7,1.008-.7,1.072,0,1.28.576,1.36.88h2.176c-.064-1.12-.928-2.5-3.44-2.5-2.5,0-3.344,1.3-3.344,2.512,0,1.168.432,2,3.136,2.672,1.184.288,1.536.5,1.536,1.024,0,.512-.3.816-1.152.816A1.436,1.436,0,0,1,18.96,9.5Zm8.08-4.064h1.28V9.792c0,1.456.528,2.32,2.144,2.32a4.974,4.974,0,0,0,1.536-.16V10.384c-.16.016-.384.016-.512.016-.688,0-.88-.24-.88-.864V5.44h1.632V3.712H28.352V1.472H26.064v2.24h-1.28Zm10.3-1.92c-2.624,0-4.176,1.808-4.176,4.368,0,2.464,1.5,4.3,4.064,4.3,2.624,0,4.128-1.84,4.128-4.352C39.1,5.248,37.52,3.52,35.088,3.52Zm-.1,1.808c1.152,0,1.792.816,1.792,2.544,0,1.584-.624,2.528-1.76,2.528-1.1,0-1.792-.944-1.792-2.544C33.232,6.112,33.936,5.328,34.992,5.328ZM40.832,12h2.3V8.384c0-2.272.992-2.72,2.656-2.672V3.52a2.669,2.669,0,0,0-2.656,1.648c0-.448-.032-1.264-.064-1.456H40.816c.016.7.016,1.424.016,2.256Zm6.4,0h2.3V3.712h-2.3Zm2.3-9.632V.32h-2.3V2.368ZM51.1,9.5c.192,1.472,1.216,2.688,3.744,2.688,2.512,0,3.568-1.248,3.568-2.624,0-1.216-.4-2.16-3.168-2.8-1.344-.32-1.6-.512-1.6-.928,0-.368.256-.7,1.008-.7,1.072,0,1.28.576,1.36.88h2.176c-.064-1.12-.928-2.5-3.44-2.5-2.5,0-3.344,1.3-3.344,2.512,0,1.168.432,2,3.136,2.672,1.184.288,1.536.5,1.536,1.024,0,.512-.3.816-1.152.816A1.436,1.436,0,0,1,53.36,9.5Zm13.968-.176a1.411,1.411,0,0,1-1.424,1.088c-.992,0-1.632-.8-1.632-2.576,0-1.6.592-2.512,1.648-2.512a1.3,1.3,0,0,1,1.424,1.136h2.224a3.262,3.262,0,0,0-3.6-2.944c-2.528,0-4.016,1.952-4.016,4.4,0,2.5,1.328,4.272,3.9,4.272a3.427,3.427,0,0,0,3.712-2.864ZM68.928.32V12h2.3V7.6c0-1.264.24-2.224,1.52-2.224.96,0,1.344.576,1.344,1.648V12h2.272V6.688c0-2.24-1.232-3.168-2.768-3.168A2.614,2.614,0,0,0,71.232,4.7V.32ZM89.5,6.384c0-1.984-1.216-2.848-3.424-2.864-2.528,0-3.44,1.184-3.552,2.656H84.7c.1-.608.32-1.008,1.28-1.008,1.072,0,1.28.576,1.28,1.168v.5H86.08c-2.432,0-3.936.88-3.936,2.768a2.551,2.551,0,0,0,2.832,2.592,2.45,2.45,0,0,0,2.336-1.008,3.243,3.243,0,0,0,.112.816h2.192A18.446,18.446,0,0,1,89.5,9.856Zm-2.24,2.064c0,1.088-.176,2.112-1.632,2.112a1.069,1.069,0,0,1-1.2-1.1c0-.8.512-1.232,1.9-1.232h.928ZM91.024,9.5c.192,1.472,1.216,2.688,3.744,2.688,2.512,0,3.568-1.248,3.568-2.624,0-1.216-.4-2.16-3.168-2.8-1.344-.32-1.6-.512-1.6-.928,0-.368.256-.7,1.008-.7,1.072,0,1.28.576,1.36.88h2.176c-.064-1.12-.928-2.5-3.44-2.5-2.5,0-3.344,1.3-3.344,2.512,0,1.168.432,2,3.136,2.672C95.648,8.992,96,9.2,96,9.728c0,.512-.3.816-1.152.816A1.436,1.436,0,0,1,93.28,9.5Zm8.9-.208c0,.9,0,1.808-.016,2.7H102.1a3.751,3.751,0,0,0,.1-.784,2.239,2.239,0,0,0,2.176.976c2.384,0,3.6-2.112,3.6-4.48,0-2.32-1.12-4.192-3.376-4.192a2.59,2.59,0,0,0-2.368,1.072V.32h-2.3Zm5.728-1.536c0,1.568-.624,2.608-1.792,2.608-1.328,0-1.744-1.072-1.744-2.464,0-1.7.464-2.544,1.776-2.544C105.12,5.36,105.648,6.368,105.648,7.76Zm11.44.592a4.843,4.843,0,0,0,.032-.7c0-2.064-.976-4.128-3.808-4.128-2.672,0-4,1.856-4,4.464,0,2.176,1.184,4.208,3.92,4.208a3.623,3.623,0,0,0,3.792-2.672h-2.288a1.324,1.324,0,0,1-1.456.88c-1.136,0-1.664-1.008-1.664-2.048Zm-5.424-1.408c.1-1.024.544-1.776,1.632-1.776,1.12,0,1.5.816,1.52,1.776ZM118.32,9.5c.192,1.472,1.216,2.688,3.744,2.688,2.512,0,3.568-1.248,3.568-2.624,0-1.216-.4-2.16-3.168-2.8-1.344-.32-1.6-.512-1.6-.928,0-.368.256-.7,1.008-.7,1.072,0,1.28.576,1.36.88h2.176c-.064-1.12-.928-2.5-3.44-2.5-2.5,0-3.344,1.3-3.344,2.512,0,1.168.432,2,3.136,2.672,1.184.288,1.536.5,1.536,1.024,0,.512-.3.816-1.152.816a1.436,1.436,0,0,1-1.568-1.04ZM126.4,5.44h1.28V9.792c0,1.456.528,2.32,2.144,2.32a4.974,4.974,0,0,0,1.536-.16V10.384c-.16.016-.384.016-.512.016-.688,0-.88-.24-.88-.864V5.44H131.6V3.712h-1.632V1.472H127.68v2.24H126.4Zm14.5-1.92c-2.624,0-4.176,1.808-4.176,4.368,0,2.464,1.5,4.3,4.064,4.3,2.624,0,4.128-1.84,4.128-4.352C144.912,5.248,143.328,3.52,140.9,3.52Zm-.1,1.808c1.152,0,1.792.816,1.792,2.544,0,1.584-.624,2.528-1.76,2.528-1.1,0-1.792-.944-1.792-2.544C139.04,6.112,139.744,5.328,140.8,5.328ZM146.656,12h2.3V7.392c0-1.472.544-2.016,1.52-2.016,1.024,0,1.328.672,1.328,1.616V12H154.1V6.736c0-2.08-1.072-3.216-2.736-3.216a2.52,2.52,0,0,0-2.4,1.248c-.016-.256-.048-.832-.1-1.056H146.64c.016.624.016,1.392.016,2.1ZM161.6.32v4c-.176-.368-.816-.8-2.016-.8-2.352,0-3.76,1.856-3.76,4.4,0,2.592,1.328,4.272,3.424,4.272a2.494,2.494,0,0,0,2.352-1.056c.016.192.064.608.112.864H163.9c-.016-.752-.016-1.52-.016-2.272V.32Zm-3.424,7.552c0-1.568.608-2.512,1.808-2.512,1.5,0,1.712,1.072,1.712,2.5,0,1.184-.192,2.5-1.76,2.5C158.8,10.352,158.176,9.488,158.176,7.872Zm15.2.48a4.843,4.843,0,0,0,.032-.7c0-2.064-.976-4.128-3.808-4.128-2.672,0-4,1.856-4,4.464,0,2.176,1.184,4.208,3.92,4.208a3.623,3.623,0,0,0,3.792-2.672h-2.288a1.324,1.324,0,0,1-1.456.88c-1.136,0-1.664-1.008-1.664-2.048Zm-5.424-1.408c.1-1.024.544-1.776,1.632-1.776,1.12,0,1.5.816,1.52,1.776ZM175.168,12h2.3V8.384c0-2.272.992-2.72,2.656-2.672V3.52a2.669,2.669,0,0,0-2.656,1.648c0-.448-.032-1.264-.064-1.456h-2.256c.016.7.016,1.424.016,2.256Zm6.064,0h6.7l.272-1.808h-4.3L187.92,5.5V3.712h-6.5V5.52h3.9l-4.1,4.752ZM193.28,3.52c-2.624,0-4.176,1.808-4.176,4.368,0,2.464,1.5,4.3,4.064,4.3,2.624,0,4.128-1.84,4.128-4.352C197.3,5.248,195.712,3.52,193.28,3.52Zm-.1,1.808c1.152,0,1.792.816,1.792,2.544,0,1.584-.624,2.528-1.76,2.528-1.1,0-1.792-.944-1.792-2.544C191.424,6.112,192.128,5.328,193.184,5.328Zm13.232,3.024a4.843,4.843,0,0,0,.032-.7c0-2.064-.976-4.128-3.808-4.128-2.672,0-4,1.856-4,4.464,0,2.176,1.184,4.208,3.92,4.208a3.623,3.623,0,0,0,3.792-2.672h-2.288a1.324,1.324,0,0,1-1.456.88c-1.136,0-1.664-1.008-1.664-2.048Zm-5.424-1.408c.1-1.024.544-1.776,1.632-1.776,1.12,0,1.5.816,1.52,1.776ZM210.464.32h-2.3V12h2.3V9.344L211.52,8.32l2.1,3.68h2.592l-3.152-5.152,2.88-3.136h-2.624c-1.152,1.392-2.24,2.672-2.848,3.5Z" transform="translate(49.395)" fill="#fff"/>
    </g>
    <g id="Group_557-2" data-name="Group 557" transform="translate(449 2134.718)">
      <path id="Path_886" data-name="Path 886" d="M1.312,12H6.3c2.336,0,3.824-1.408,3.824-3.3A2.647,2.647,0,0,0,8.4,6.176,2.485,2.485,0,0,0,9.808,3.792C9.808,2.352,8.8.976,6.128.976H1.312ZM3.648,5.328V2.816H5.936c.912,0,1.52.416,1.52,1.216,0,.784-.464,1.3-1.6,1.3Zm0,1.84H5.792c1.312,0,1.888.56,1.888,1.456,0,.992-.576,1.536-1.872,1.536H3.648ZM19.28,8.352a4.843,4.843,0,0,0,.032-.7c0-2.064-.976-4.128-3.808-4.128-2.672,0-4,1.856-4,4.464,0,2.176,1.184,4.208,3.92,4.208A3.623,3.623,0,0,0,19.216,9.52H16.928a1.324,1.324,0,0,1-1.456.88c-1.136,0-1.664-1.008-1.664-2.048ZM13.856,6.944c.1-1.024.544-1.776,1.632-1.776,1.12,0,1.5.816,1.52,1.776ZM24.864,3.52c-2.624,0-4.176,1.808-4.176,4.368,0,2.464,1.5,4.3,4.064,4.3,2.624,0,4.128-1.84,4.128-4.352C28.88,5.248,27.3,3.52,24.864,3.52Zm-.1,1.808c1.152,0,1.792.816,1.792,2.544,0,1.584-.624,2.528-1.76,2.528-1.1,0-1.792-.944-1.792-2.544C23.008,6.112,23.712,5.328,24.768,5.328ZM34.4,3.52c-2.624,0-4.176,1.808-4.176,4.368,0,2.464,1.5,4.3,4.064,4.3,2.624,0,4.128-1.84,4.128-4.352C38.416,5.248,36.832,3.52,34.4,3.52Zm-.1,1.808c1.152,0,1.792.816,1.792,2.544,0,1.584-.624,2.528-1.76,2.528-1.1,0-1.792-.944-1.792-2.544C32.544,6.112,33.248,5.328,34.3,5.328ZM40.144,12h2.3V8.384c0-2.272.992-2.72,2.656-2.672V3.52a2.669,2.669,0,0,0-2.656,1.648c0-.448-.032-1.264-.064-1.456H40.128c.016.7.016,1.424.016,2.256ZM51.776.32v4c-.176-.368-.816-.8-2.016-.8C47.408,3.52,46,5.376,46,7.92c0,2.592,1.328,4.272,3.424,4.272a2.494,2.494,0,0,0,2.352-1.056c.016.192.064.608.112.864H54.08c-.016-.752-.016-1.52-.016-2.272V.32ZM48.352,7.872c0-1.568.608-2.512,1.808-2.512,1.5,0,1.712,1.072,1.712,2.5,0,1.184-.192,2.5-1.76,2.5C48.976,10.352,48.352,9.488,48.352,7.872Zm15.2.48a4.842,4.842,0,0,0,.032-.7c0-2.064-.976-4.128-3.808-4.128-2.672,0-4,1.856-4,4.464,0,2.176,1.184,4.208,3.92,4.208A3.623,3.623,0,0,0,63.488,9.52H61.2a1.324,1.324,0,0,1-1.456.88c-1.136,0-1.664-1.008-1.664-2.048ZM58.128,6.944c.1-1.024.544-1.776,1.632-1.776,1.12,0,1.5.816,1.52,1.776ZM67.6,12V.32H65.3V12Zm2.208,0h2.3V3.712h-2.3Zm2.3-9.632V.32h-2.3V2.368ZM74.336,12h2.3V7.392c0-1.472.544-2.016,1.52-2.016,1.024,0,1.328.672,1.328,1.616V12h2.288V6.736c0-2.08-1.072-3.216-2.736-3.216a2.52,2.52,0,0,0-2.4,1.248c-.016-.256-.048-.832-.1-1.056H74.32c.016.624.016,1.392.016,2.1ZM91.5,6.1c0-.8.016-1.632.016-2.384H89.36c-.016.144-.08.64-.1.864-.128-.384-.72-1.056-2.144-1.056C85.056,3.52,83.5,5.3,83.5,7.888c0,2.224,1.248,4.016,3.424,4.016a2.45,2.45,0,0,0,2.336-1.168v.4c0,1.616-.288,2.528-1.776,2.528a1.307,1.307,0,0,1-1.456-.96H83.7c.08.944.672,2.624,3.7,2.624,3.136,0,4.112-1.68,4.112-4.336Zm-5.648,1.7c0-1.664.784-2.432,1.776-2.432,1.456,0,1.7.96,1.7,2.352s-.368,2.336-1.744,2.336C86.576,10.048,85.856,9.216,85.856,7.792ZM97.728,12h2.3V3.712h-2.3Zm2.3-9.632V.32h-2.3V2.368ZM102.256,12h2.3V7.392c0-1.472.544-2.016,1.52-2.016,1.024,0,1.328.672,1.328,1.616V12H109.7V6.736c0-2.08-1.072-3.216-2.736-3.216a2.52,2.52,0,0,0-2.4,1.248c-.016-.256-.048-.832-.1-1.056H102.24c.016.624.016,1.392.016,2.1Zm8.592-8.288L113.664,12h2.4l2.928-8.288H116.7c-.72,2.4-1.52,4.9-1.76,6.256h-.016c-.16-.992-.816-3.44-1.6-6.256Zm16.576,4.64a4.843,4.843,0,0,0,.032-.7c0-2.064-.976-4.128-3.808-4.128-2.672,0-4,1.856-4,4.464,0,2.176,1.184,4.208,3.92,4.208A3.623,3.623,0,0,0,127.36,9.52h-2.288a1.324,1.324,0,0,1-1.456.88c-1.136,0-1.664-1.008-1.664-2.048ZM122,6.944c.1-1.024.544-1.776,1.632-1.776,1.12,0,1.5.816,1.52,1.776ZM129.232,12h2.3V7.392c0-1.472.544-2.016,1.52-2.016,1.024,0,1.328.672,1.328,1.616V12h2.288V6.736c0-2.08-1.072-3.216-2.736-3.216a2.52,2.52,0,0,0-2.4,1.248c-.016-.256-.048-.832-.1-1.056h-2.224c.016.624.016,1.392.016,2.1ZM137.9,5.44h1.28V9.792c0,1.456.528,2.32,2.144,2.32a4.974,4.974,0,0,0,1.536-.16V10.384c-.16.016-.384.016-.512.016-.688,0-.88-.24-.88-.864V5.44H143.1V3.712h-1.632V1.472h-2.288v2.24H137.9Zm13.552.944c0-1.984-1.216-2.848-3.424-2.864-2.528,0-3.44,1.184-3.552,2.656h2.176c.1-.608.32-1.008,1.28-1.008,1.072,0,1.28.576,1.28,1.168v.5h-1.184c-2.432,0-3.936.88-3.936,2.768a2.551,2.551,0,0,0,2.832,2.592,2.45,2.45,0,0,0,2.336-1.008,3.242,3.242,0,0,0,.112.816h2.192a18.444,18.444,0,0,1-.112-2.144Zm-2.24,2.064c0,1.088-.176,2.112-1.632,2.112a1.069,1.069,0,0,1-1.2-1.1c0-.8.512-1.232,1.9-1.232h.928ZM153.68,12h2.3V8.384c0-2.272.992-2.72,2.656-2.672V3.52a2.669,2.669,0,0,0-2.656,1.648c0-.448-.032-1.264-.064-1.456h-2.256c.016.7.016,1.424.016,2.256Zm6.4,0h2.3V3.712h-2.3Zm2.3-9.632V.32h-2.3V2.368ZM163.952,9.5c.192,1.472,1.216,2.688,3.744,2.688,2.512,0,3.568-1.248,3.568-2.624,0-1.216-.4-2.16-3.168-2.8-1.344-.32-1.6-.512-1.6-.928,0-.368.256-.7,1.008-.7,1.072,0,1.28.576,1.36.88h2.176c-.064-1.12-.928-2.5-3.44-2.5-2.5,0-3.344,1.3-3.344,2.512,0,1.168.432,2,3.136,2.672,1.184.288,1.536.5,1.536,1.024,0,.512-.3.816-1.152.816a1.436,1.436,0,0,1-1.568-1.04Zm15.92-3.12c0-1.984-1.216-2.848-3.424-2.864-2.528,0-3.44,1.184-3.552,2.656h2.176c.1-.608.32-1.008,1.28-1.008,1.072,0,1.28.576,1.28,1.168v.5h-1.184c-2.432,0-3.936.88-3.936,2.768a2.551,2.551,0,0,0,2.832,2.592,2.45,2.45,0,0,0,2.336-1.008,3.242,3.242,0,0,0,.112.816h2.192a18.444,18.444,0,0,1-.112-2.144Zm-2.24,2.064c0,1.088-.176,2.112-1.632,2.112a1.069,1.069,0,0,1-1.2-1.1c0-.8.512-1.232,1.9-1.232h.928Zm3.5-3.008h1.28V9.792c0,1.456.528,2.32,2.144,2.32a4.974,4.974,0,0,0,1.536-.16V10.384c-.16.016-.384.016-.512.016-.688,0-.88-.24-.88-.864V5.44h1.632V3.712H184.7V1.472h-2.288v2.24h-1.28ZM187.76,12h2.3V3.712h-2.3Zm2.3-9.632V.32h-2.3V2.368Zm9.5,5.984a4.843,4.843,0,0,0,.032-.7c0-2.064-.976-4.128-3.808-4.128-2.672,0-4,1.856-4,4.464,0,2.176,1.184,4.208,3.92,4.208A3.623,3.623,0,0,0,199.5,9.52h-2.288a1.324,1.324,0,0,1-1.456.88c-1.136,0-1.664-1.008-1.664-2.048Zm-5.424-1.408c.1-1.024.544-1.776,1.632-1.776,1.12,0,1.5.816,1.52,1.776ZM201.36,12h2.3V8.384c0-2.272.992-2.72,2.656-2.672V3.52a2.669,2.669,0,0,0-2.656,1.648c0-.448-.032-1.264-.064-1.456h-2.256c.016.7.016,1.424.016,2.256Zm13.072-5.616c0-1.984-1.216-2.848-3.424-2.864-2.528,0-3.44,1.184-3.552,2.656h2.176c.1-.608.32-1.008,1.28-1.008,1.072,0,1.28.576,1.28,1.168v.5h-1.184c-2.432,0-3.936.88-3.936,2.768a2.551,2.551,0,0,0,2.832,2.592,2.45,2.45,0,0,0,2.336-1.008,3.242,3.242,0,0,0,.112.816h2.192a18.444,18.444,0,0,1-.112-2.144Zm-2.24,2.064c0,1.088-.176,2.112-1.632,2.112a1.069,1.069,0,0,1-1.2-1.1c0-.8.512-1.232,1.9-1.232h.928Zm6.752,6.72v-3.9a2.315,2.315,0,0,0,2.1.928c2,0,3.6-1.616,3.6-4.544,0-2.56-1.424-4.128-3.3-4.128a2.606,2.606,0,0,0-2.4,1.232,9.508,9.508,0,0,0-.08-1.04H216.64c.016.672.016,1.328.016,2v9.456Zm3.376-7.424c0,1.68-.592,2.624-1.808,2.624-1.232,0-1.664-.912-1.664-2.5,0-1.664.464-2.512,1.76-2.512C221.712,5.36,222.32,6.224,222.32,7.744Zm6.352,7.424v-3.9a2.315,2.315,0,0,0,2.1.928c2,0,3.6-1.616,3.6-4.544,0-2.56-1.424-4.128-3.3-4.128a2.606,2.606,0,0,0-2.4,1.232,9.508,9.508,0,0,0-.08-1.04h-2.224c.016.672.016,1.328.016,2v9.456Zm3.376-7.424c0,1.68-.592,2.624-1.808,2.624-1.232,0-1.664-.912-1.664-2.5,0-1.664.464-2.512,1.76-2.512C231.44,5.36,232.048,6.224,232.048,7.744ZM239.9,3.52c-2.624,0-4.176,1.808-4.176,4.368,0,2.464,1.5,4.3,4.064,4.3,2.624,0,4.128-1.84,4.128-4.352C243.92,5.248,242.336,3.52,239.9,3.52Zm-.1,1.808c1.152,0,1.792.816,1.792,2.544,0,1.584-.624,2.528-1.76,2.528-1.1,0-1.792-.944-1.792-2.544C238.048,6.112,238.752,5.328,239.808,5.328ZM245.648,12h2.3V8.384c0-2.272.992-2.72,2.656-2.672V3.52a2.669,2.669,0,0,0-2.656,1.648c0-.448-.032-1.264-.064-1.456h-2.256c.016.7.016,1.424.016,2.256Zm5.984-6.56h1.28V9.792c0,1.456.528,2.32,2.144,2.32a4.974,4.974,0,0,0,1.536-.16V10.384c-.16.016-.384.016-.512.016-.688,0-.88-.24-.88-.864V5.44h1.632V3.712H255.2V1.472h-2.288v2.24h-1.28Zm13.9,2.912a4.845,4.845,0,0,0,.032-.7c0-2.064-.976-4.128-3.808-4.128-2.672,0-4,1.856-4,4.464,0,2.176,1.184,4.208,3.92,4.208a3.623,3.623,0,0,0,3.792-2.672h-2.288a1.324,1.324,0,0,1-1.456.88c-1.136,0-1.664-1.008-1.664-2.048Zm-5.424-1.408c.1-1.024.544-1.776,1.632-1.776,1.12,0,1.5.816,1.52,1.776ZM267.344,12h2.3V7.392c0-1.472.544-2.016,1.52-2.016,1.024,0,1.328.672,1.328,1.616V12h2.288V6.736c0-2.08-1.072-3.216-2.736-3.216a2.52,2.52,0,0,0-2.4,1.248c-.016-.256-.048-.832-.1-1.056h-2.224c.016.624.016,1.392.016,2.1Z" transform="translate(49.395)" fill="#fff"/>
      <path id="Path_872" data-name="Path 872" d="M0,0H40.47" transform="translate(0 6.899)" fill="none" stroke="#11c6ff" stroke-linecap="square" stroke-width="4"/>
    </g>
    <g id="Group_558" data-name="Group 558" transform="translate(449 2168.718)">
      <path id="Path_885" data-name="Path 885" d="M6.72,12l4-11.024H8.288L6.56,6.1a40.172,40.172,0,0,0-1.184,3.952H5.344C5.088,8.912,4.72,7.6,4.208,6.064L2.576.976H.016L3.9,12ZM18.256,8.352a4.843,4.843,0,0,0,.032-.7c0-2.064-.976-4.128-3.808-4.128-2.672,0-4,1.856-4,4.464,0,2.176,1.184,4.208,3.92,4.208A3.623,3.623,0,0,0,18.192,9.52H15.9a1.324,1.324,0,0,1-1.456.88c-1.136,0-1.664-1.008-1.664-2.048ZM12.832,6.944c.1-1.024.544-1.776,1.632-1.776,1.12,0,1.5.816,1.52,1.776ZM20.048,12h2.3V3.712h-2.3Zm2.3-9.632V.32h-2.3V2.368ZM26.864,12V.32h-2.3V12Zm2.208,0h2.3V3.712h-2.3Zm2.3-9.632V.32h-2.3V2.368ZM41.12,6.1c0-.8.016-1.632.016-2.384h-2.16c-.016.144-.08.64-.1.864-.128-.384-.72-1.056-2.144-1.056-2.064,0-3.616,1.776-3.616,4.368,0,2.224,1.248,4.016,3.424,4.016a2.45,2.45,0,0,0,2.336-1.168v.4c0,1.616-.288,2.528-1.776,2.528a1.307,1.307,0,0,1-1.456-.96H33.312c.08.944.672,2.624,3.7,2.624,3.136,0,4.112-1.68,4.112-4.336Zm-5.648,1.7c0-1.664.784-2.432,1.776-2.432,1.456,0,1.7.96,1.7,2.352s-.368,2.336-1.744,2.336C36.192,10.048,35.472,9.216,35.472,7.792ZM43.312.32V12h2.3V7.6c0-1.264.24-2.224,1.52-2.224.96,0,1.344.576,1.344,1.648V12h2.272V6.688c0-2.24-1.232-3.168-2.768-3.168A2.614,2.614,0,0,0,45.616,4.7V.32Zm16.96,8.032a4.842,4.842,0,0,0,.032-.7c0-2.064-.976-4.128-3.808-4.128-2.672,0-4,1.856-4,4.464,0,2.176,1.184,4.208,3.92,4.208A3.623,3.623,0,0,0,60.208,9.52H57.92a1.324,1.324,0,0,1-1.456.88c-1.136,0-1.664-1.008-1.664-2.048ZM54.848,6.944c.1-1.024.544-1.776,1.632-1.776,1.12,0,1.5.816,1.52,1.776ZM62.064,12h2.3V3.712h-2.3Zm2.3-9.632V.32h-2.3V2.368ZM71.888.32v4c-.176-.368-.816-.8-2.016-.8-2.352,0-3.76,1.856-3.76,4.4,0,2.592,1.328,4.272,3.424,4.272a2.494,2.494,0,0,0,2.352-1.056c.016.192.064.608.112.864h2.192c-.016-.752-.016-1.52-.016-2.272V.32ZM68.464,7.872c0-1.568.608-2.512,1.808-2.512,1.5,0,1.712,1.072,1.712,2.5,0,1.184-.192,2.5-1.76,2.5C69.088,10.352,68.464,9.488,68.464,7.872Zm7.9,1.424c0,.9,0,1.808-.016,2.7h2.192a3.751,3.751,0,0,0,.1-.784,2.239,2.239,0,0,0,2.176.976c2.384,0,3.6-2.112,3.6-4.48,0-2.32-1.12-4.192-3.376-4.192a2.59,2.59,0,0,0-2.368,1.072V.32h-2.3ZM82.1,7.76c0,1.568-.624,2.608-1.792,2.608-1.328,0-1.744-1.072-1.744-2.464,0-1.7.464-2.544,1.776-2.544C81.568,5.36,82.1,6.368,82.1,7.76Zm11.44.592a4.843,4.843,0,0,0,.032-.7c0-2.064-.976-4.128-3.808-4.128-2.672,0-4,1.856-4,4.464,0,2.176,1.184,4.208,3.92,4.208A3.623,3.623,0,0,0,93.472,9.52H91.184a1.324,1.324,0,0,1-1.456.88c-1.136,0-1.664-1.008-1.664-2.048ZM88.112,6.944c.1-1.024.544-1.776,1.632-1.776,1.12,0,1.5.816,1.52,1.776ZM99.12,3.52c-2.624,0-4.176,1.808-4.176,4.368,0,2.464,1.5,4.3,4.064,4.3,2.624,0,4.128-1.84,4.128-4.352C103.136,5.248,101.552,3.52,99.12,3.52Zm-.1,1.808c1.152,0,1.792.816,1.792,2.544,0,1.584-.624,2.528-1.76,2.528-1.1,0-1.792-.944-1.792-2.544C97.264,6.112,97.968,5.328,99.024,5.328Zm9.632-1.808c-2.624,0-4.176,1.808-4.176,4.368,0,2.464,1.5,4.3,4.064,4.3,2.624,0,4.128-1.84,4.128-4.352C112.672,5.248,111.088,3.52,108.656,3.52Zm-.1,1.808c1.152,0,1.792.816,1.792,2.544,0,1.584-.624,2.528-1.76,2.528-1.1,0-1.792-.944-1.792-2.544C106.8,6.112,107.5,5.328,108.56,5.328ZM114.4,12h2.3V8.384c0-2.272.992-2.72,2.656-2.672V3.52A2.669,2.669,0,0,0,116.7,5.168c0-.448-.032-1.264-.064-1.456h-2.256c.016.7.016,1.424.016,2.256ZM126.032.32v4c-.176-.368-.816-.8-2.016-.8-2.352,0-3.76,1.856-3.76,4.4,0,2.592,1.328,4.272,3.424,4.272a2.494,2.494,0,0,0,2.352-1.056c.016.192.064.608.112.864h2.192c-.016-.752-.016-1.52-.016-2.272V.32Zm-3.424,7.552c0-1.568.608-2.512,1.808-2.512,1.5,0,1.712,1.072,1.712,2.5,0,1.184-.192,2.5-1.76,2.5C123.232,10.352,122.608,9.488,122.608,7.872Zm15.2.48a4.843,4.843,0,0,0,.032-.7c0-2.064-.976-4.128-3.808-4.128-2.672,0-4,1.856-4,4.464,0,2.176,1.184,4.208,3.92,4.208a3.623,3.623,0,0,0,3.792-2.672h-2.288A1.324,1.324,0,0,1,134,10.4c-1.136,0-1.664-1.008-1.664-2.048Zm-5.424-1.408c.1-1.024.544-1.776,1.632-1.776,1.12,0,1.5.816,1.52,1.776ZM141.856,12V.32h-2.3V12Zm2.208,0h2.3V3.712h-2.3Zm2.3-9.632V.32h-2.3V2.368ZM148.592,12h2.3V7.392c0-1.472.544-2.016,1.52-2.016,1.024,0,1.328.672,1.328,1.616V12h2.288V6.736c0-2.08-1.072-3.216-2.736-3.216a2.52,2.52,0,0,0-2.4,1.248c-.016-.256-.048-.832-.1-1.056h-2.224c.016.624.016,1.392.016,2.1ZM165.76,6.1c0-.8.016-1.632.016-2.384h-2.16c-.016.144-.08.64-.1.864-.128-.384-.72-1.056-2.144-1.056-2.064,0-3.616,1.776-3.616,4.368,0,2.224,1.248,4.016,3.424,4.016a2.45,2.45,0,0,0,2.336-1.168v.4c0,1.616-.288,2.528-1.776,2.528a1.307,1.307,0,0,1-1.456-.96h-2.336c.08.944.672,2.624,3.7,2.624,3.136,0,4.112-1.68,4.112-4.336Zm-5.648,1.7c0-1.664.784-2.432,1.776-2.432,1.456,0,1.7.96,1.7,2.352s-.368,2.336-1.744,2.336C160.832,10.048,160.112,9.216,160.112,7.792Z" transform="translate(48.395)" fill="#fff"/>
      <path id="Path_873" data-name="Path 873" d="M0,0H40.47" transform="translate(0 8.069)" fill="none" stroke="#11c6ff" stroke-linecap="square" stroke-width="4"/>
    </g>
    <g id="Group_559-2" data-name="Group 559" transform="translate(449 2201.718)">
      <path id="Path_884" data-name="Path 884" d="M5.216,7.584c1.776,0,2.08.576,2.08,1.776v.16A7.887,7.887,0,0,0,7.52,12H9.792a8.327,8.327,0,0,1-.16-2.1V9.36c0-1.984-.832-2.544-1.376-2.752A2.649,2.649,0,0,0,9.856,4c0-1.712-1.3-3.024-3.7-3.024H1.312V12H3.648V7.584ZM3.648,2.864H5.7c1.168,0,1.76.512,1.76,1.408,0,.912-.512,1.408-1.808,1.408h-2ZM11.712,12h2.3V3.712h-2.3Zm2.3-9.632V.32h-2.3V2.368ZM15.584,9.5c.192,1.472,1.216,2.688,3.744,2.688,2.512,0,3.568-1.248,3.568-2.624,0-1.216-.4-2.16-3.168-2.8-1.344-.32-1.6-.512-1.6-.928,0-.368.256-.7,1.008-.7,1.072,0,1.28.576,1.36.88h2.176c-.064-1.12-.928-2.5-3.44-2.5-2.5,0-3.344,1.3-3.344,2.512,0,1.168.432,2,3.136,2.672,1.184.288,1.536.5,1.536,1.024,0,.512-.3.816-1.152.816A1.436,1.436,0,0,1,17.84,9.5ZM24.56,12h2.3V3.712h-2.3Zm2.3-9.632V.32h-2.3V2.368ZM34,9.328a1.411,1.411,0,0,1-1.424,1.088c-.992,0-1.632-.8-1.632-2.576,0-1.6.592-2.512,1.648-2.512a1.3,1.3,0,0,1,1.424,1.136H36.24a3.262,3.262,0,0,0-3.6-2.944c-2.528,0-4.016,1.952-4.016,4.4,0,2.5,1.328,4.272,3.9,4.272A3.427,3.427,0,0,0,36.24,9.328ZM41.632,3.52c-2.624,0-4.176,1.808-4.176,4.368,0,2.464,1.5,4.3,4.064,4.3,2.624,0,4.128-1.84,4.128-4.352C45.648,5.248,44.064,3.52,41.632,3.52Zm-.1,1.808c1.152,0,1.792.816,1.792,2.544,0,1.584-.624,2.528-1.76,2.528-1.1,0-1.792-.944-1.792-2.544C39.776,6.112,40.48,5.328,41.536,5.328ZM47.376,9.3c0,.9,0,1.808-.016,2.7h2.192a3.751,3.751,0,0,0,.1-.784,2.239,2.239,0,0,0,2.176.976c2.384,0,3.6-2.112,3.6-4.48,0-2.32-1.12-4.192-3.376-4.192A2.59,2.59,0,0,0,49.68,4.592V.32h-2.3ZM53.1,7.76c0,1.568-.624,2.608-1.792,2.608-1.328,0-1.744-1.072-1.744-2.464,0-1.7.464-2.544,1.776-2.544C52.576,5.36,53.1,6.368,53.1,7.76Zm11.44.592a4.843,4.843,0,0,0,.032-.7c0-2.064-.976-4.128-3.808-4.128-2.672,0-4,1.856-4,4.464,0,2.176,1.184,4.208,3.92,4.208A3.623,3.623,0,0,0,64.48,9.52H62.192a1.324,1.324,0,0,1-1.456.88c-1.136,0-1.664-1.008-1.664-2.048ZM59.12,6.944c.1-1.024.544-1.776,1.632-1.776,1.12,0,1.5.816,1.52,1.776ZM70.128,3.52c-2.624,0-4.176,1.808-4.176,4.368,0,2.464,1.5,4.3,4.064,4.3,2.624,0,4.128-1.84,4.128-4.352C74.144,5.248,72.56,3.52,70.128,3.52Zm-.1,1.808c1.152,0,1.792.816,1.792,2.544,0,1.584-.624,2.528-1.76,2.528-1.1,0-1.792-.944-1.792-2.544C68.272,6.112,68.976,5.328,70.032,5.328ZM79.664,3.52c-2.624,0-4.176,1.808-4.176,4.368,0,2.464,1.5,4.3,4.064,4.3,2.624,0,4.128-1.84,4.128-4.352C83.68,5.248,82.1,3.52,79.664,3.52Zm-.1,1.808c1.152,0,1.792.816,1.792,2.544,0,1.584-.624,2.528-1.76,2.528-1.1,0-1.792-.944-1.792-2.544C77.808,6.112,78.512,5.328,79.568,5.328ZM85.408,12h2.3V8.384c0-2.272.992-2.72,2.656-2.672V3.52a2.669,2.669,0,0,0-2.656,1.648c0-.448-.032-1.264-.064-1.456H85.392c.016.7.016,1.424.016,2.256ZM97.04.32v4c-.176-.368-.816-.8-2.016-.8-2.352,0-3.76,1.856-3.76,4.4,0,2.592,1.328,4.272,3.424,4.272a2.494,2.494,0,0,0,2.352-1.056c.016.192.064.608.112.864h2.192c-.016-.752-.016-1.52-.016-2.272V.32ZM93.616,7.872c0-1.568.608-2.512,1.808-2.512,1.5,0,1.712,1.072,1.712,2.5,0,1.184-.192,2.5-1.76,2.5C94.24,10.352,93.616,9.488,93.616,7.872Zm15.2.48a4.843,4.843,0,0,0,.032-.7c0-2.064-.976-4.128-3.808-4.128-2.672,0-4,1.856-4,4.464,0,2.176,1.184,4.208,3.92,4.208a3.623,3.623,0,0,0,3.792-2.672h-2.288a1.324,1.324,0,0,1-1.456.88c-1.136,0-1.664-1.008-1.664-2.048Zm-5.424-1.408c.1-1.024.544-1.776,1.632-1.776,1.12,0,1.5.816,1.52,1.776ZM112.864,12V.32h-2.3V12Zm2.208,0h2.3V3.712h-2.3Zm2.3-9.632V.32h-2.3V2.368ZM119.6,12h2.3V7.392c0-1.472.544-2.016,1.52-2.016,1.024,0,1.328.672,1.328,1.616V12h2.288V6.736c0-2.08-1.072-3.216-2.736-3.216a2.52,2.52,0,0,0-2.4,1.248c-.016-.256-.048-.832-.1-1.056h-2.224c.016.624.016,1.392.016,2.1Zm17.168-5.9c0-.8.016-1.632.016-2.384h-2.16c-.016.144-.08.64-.1.864-.128-.384-.72-1.056-2.144-1.056-2.064,0-3.616,1.776-3.616,4.368,0,2.224,1.248,4.016,3.424,4.016a2.45,2.45,0,0,0,2.336-1.168v.4c0,1.616-.288,2.528-1.776,2.528a1.307,1.307,0,0,1-1.456-.96H128.96c.08.944.672,2.624,3.7,2.624,3.136,0,4.112-1.68,4.112-4.336Zm-5.648,1.7c0-1.664.784-2.432,1.776-2.432,1.456,0,1.7.96,1.7,2.352s-.368,2.336-1.744,2.336C131.84,10.048,131.12,9.216,131.12,7.792Z" transform="translate(49.395)" fill="#fff"/>
      <path id="Path_874" data-name="Path 874" d="M0,0H40.47" transform="translate(0 6.972)" fill="none" stroke="#11c6ff" stroke-linecap="square" stroke-width="4"/>
    </g>
    <g id="Group_560" data-name="Group 560" transform="translate(449 2235.718)">
      <path id="Path_883" data-name="Path 883" d="M1.312,12H3.7V7.888H5.824c2.176,0,3.984-1.1,3.984-3.5,0-2.1-1.584-3.408-3.936-3.408H1.312ZM3.7,2.864H5.568c1.008,0,1.84.432,1.84,1.568,0,1.12-.784,1.552-1.888,1.552H3.7ZM11.408,12h2.3V8.384c0-2.272.992-2.72,2.656-2.672V3.52a2.669,2.669,0,0,0-2.656,1.648c0-.448-.032-1.264-.064-1.456H11.392c.016.7.016,1.424.016,2.256ZM21.424,3.52c-2.624,0-4.176,1.808-4.176,4.368,0,2.464,1.5,4.3,4.064,4.3,2.624,0,4.128-1.84,4.128-4.352C25.44,5.248,23.856,3.52,21.424,3.52Zm-.1,1.808c1.152,0,1.792.816,1.792,2.544,0,1.584-.624,2.528-1.76,2.528-1.1,0-1.792-.944-1.792-2.544C19.568,6.112,20.272,5.328,21.328,5.328Zm5.92-1.616v8.576c0,.9-.208,1.184-.944,1.184a.912.912,0,0,1-.208-.016V15.3c.192.016.5.032.7.032,2.272,0,2.752-1.136,2.752-3.5V3.712Zm2.3-1.344V.32h-2.3V2.368Zm9.5,5.984a4.842,4.842,0,0,0,.032-.7c0-2.064-.976-4.128-3.808-4.128-2.672,0-4,1.856-4,4.464,0,2.176,1.184,4.208,3.92,4.208A3.623,3.623,0,0,0,38.992,9.52H36.7a1.324,1.324,0,0,1-1.456.88c-1.136,0-1.664-1.008-1.664-2.048ZM33.632,6.944c.1-1.024.544-1.776,1.632-1.776,1.12,0,1.5.816,1.52,1.776Zm12.24,2.384a1.411,1.411,0,0,1-1.424,1.088c-.992,0-1.632-.8-1.632-2.576,0-1.6.592-2.512,1.648-2.512a1.3,1.3,0,0,1,1.424,1.136h2.224a3.262,3.262,0,0,0-3.6-2.944c-2.528,0-4.016,1.952-4.016,4.4,0,2.5,1.328,4.272,3.9,4.272a3.427,3.427,0,0,0,3.712-2.864ZM49.056,5.44h1.28V9.792c0,1.456.528,2.32,2.144,2.32a4.974,4.974,0,0,0,1.536-.16V10.384c-.16.016-.384.016-.512.016-.688,0-.88-.24-.88-.864V5.44h1.632V3.712H52.624V1.472H50.336v2.24h-1.28ZM55.712,9.3c0,.9,0,1.808-.016,2.7h2.192a3.751,3.751,0,0,0,.1-.784,2.239,2.239,0,0,0,2.176.976c2.384,0,3.6-2.112,3.6-4.48,0-2.32-1.12-4.192-3.376-4.192a2.59,2.59,0,0,0-2.368,1.072V.32h-2.3ZM61.44,7.76c0,1.568-.624,2.608-1.792,2.608C58.32,10.368,57.9,9.3,57.9,7.9c0-1.7.464-2.544,1.776-2.544C60.912,5.36,61.44,6.368,61.44,7.76Zm11.44.592a4.843,4.843,0,0,0,.032-.7c0-2.064-.976-4.128-3.808-4.128-2.672,0-4,1.856-4,4.464,0,2.176,1.184,4.208,3.92,4.208A3.623,3.623,0,0,0,72.816,9.52H70.528a1.324,1.324,0,0,1-1.456.88c-1.136,0-1.664-1.008-1.664-2.048ZM67.456,6.944c.1-1.024.544-1.776,1.632-1.776,1.12,0,1.5.816,1.52,1.776ZM82.3,6.1c0-.8.016-1.632.016-2.384H80.16c-.016.144-.08.64-.1.864-.128-.384-.72-1.056-2.144-1.056C75.856,3.52,74.3,5.3,74.3,7.888c0,2.224,1.248,4.016,3.424,4.016a2.45,2.45,0,0,0,2.336-1.168v.4c0,1.616-.288,2.528-1.776,2.528a1.307,1.307,0,0,1-1.456-.96H74.5c.08.944.672,2.624,3.7,2.624,3.136,0,4.112-1.68,4.112-4.336Zm-5.648,1.7c0-1.664.784-2.432,1.776-2.432,1.456,0,1.7.96,1.7,2.352s-.368,2.336-1.744,2.336C77.376,10.048,76.656,9.216,76.656,7.792Zm15.2.56a4.843,4.843,0,0,0,.032-.7c0-2.064-.976-4.128-3.808-4.128-2.672,0-4,1.856-4,4.464,0,2.176,1.184,4.208,3.92,4.208A3.623,3.623,0,0,0,91.792,9.52H89.5a1.324,1.324,0,0,1-1.456.88c-1.136,0-1.664-1.008-1.664-2.048ZM86.432,6.944c.1-1.024.544-1.776,1.632-1.776,1.12,0,1.5.816,1.52,1.776ZM95.9,12V.32H93.6V12Zm9.5-3.648a4.843,4.843,0,0,0,.032-.7c0-2.064-.976-4.128-3.808-4.128-2.672,0-4,1.856-4,4.464,0,2.176,1.184,4.208,3.92,4.208a3.623,3.623,0,0,0,3.792-2.672h-2.288a1.324,1.324,0,0,1-1.456.88c-1.136,0-1.664-1.008-1.664-2.048ZM99.984,6.944c.1-1.024.544-1.776,1.632-1.776,1.12,0,1.5.816,1.52,1.776ZM107.2,12h2.3V3.712h-2.3Zm2.3-9.632V.32h-2.3V2.368ZM117.024.32v4c-.176-.368-.816-.8-2.016-.8-2.352,0-3.76,1.856-3.76,4.4,0,2.592,1.328,4.272,3.424,4.272a2.494,2.494,0,0,0,2.352-1.056c.016.192.064.608.112.864h2.192c-.016-.752-.016-1.52-.016-2.272V.32ZM113.6,7.872c0-1.568.608-2.512,1.808-2.512,1.5,0,1.712,1.072,1.712,2.5,0,1.184-.192,2.5-1.76,2.5C114.224,10.352,113.6,9.488,113.6,7.872ZM121.5,12h2.3V3.712h-2.3Zm2.3-9.632V.32h-2.3V2.368ZM126.032,12h2.3V7.392c0-1.472.544-2.016,1.52-2.016,1.024,0,1.328.672,1.328,1.616V12h2.288V6.736c0-2.08-1.072-3.216-2.736-3.216a2.52,2.52,0,0,0-2.4,1.248c-.016-.256-.048-.832-.1-1.056h-2.224c.016.624.016,1.392.016,2.1ZM143.2,6.1c0-.8.016-1.632.016-2.384h-2.16c-.016.144-.08.64-.1.864-.128-.384-.72-1.056-2.144-1.056-2.064,0-3.616,1.776-3.616,4.368,0,2.224,1.248,4.016,3.424,4.016a2.45,2.45,0,0,0,2.336-1.168v.4c0,1.616-.288,2.528-1.776,2.528a1.307,1.307,0,0,1-1.456-.96h-2.336c.08.944.672,2.624,3.7,2.624,3.136,0,4.112-1.68,4.112-4.336Zm-5.648,1.7c0-1.664.784-2.432,1.776-2.432,1.456,0,1.7.96,1.7,2.352s-.368,2.336-1.744,2.336C138.272,10.048,137.552,9.216,137.552,7.792Z" transform="translate(49.395)" fill="#fff"/>
      <path id="Path_875" data-name="Path 875" d="M0,0H40.47" transform="translate(0 7.875)" fill="none" stroke="#11c6ff" stroke-linecap="square" stroke-width="4"/>
    </g>
    <g id="Group_560-2" data-name="Group 560" transform="translate(449 2268.718)">
      <path id="Path_880" data-name="Path 880" d="M1.312,12H5.584c3.376,0,5.424-2.432,5.424-5.648A5.023,5.023,0,0,0,5.7.976H1.312ZM3.7,2.9H5.5c2.16,0,3.04,1.648,3.04,3.456,0,2.144-.944,3.728-3.056,3.728H3.7ZM12.96,12h2.3V3.712h-2.3Zm2.3-9.632V.32h-2.3V2.368ZM17.472,12h2.3V8.384c0-2.272.992-2.72,2.656-2.672V3.52a2.669,2.669,0,0,0-2.656,1.648c0-.448-.032-1.264-.064-1.456H17.456c.016.7.016,1.424.016,2.256ZM31.088,8.352a4.842,4.842,0,0,0,.032-.7c0-2.064-.976-4.128-3.808-4.128-2.672,0-4,1.856-4,4.464,0,2.176,1.184,4.208,3.92,4.208A3.623,3.623,0,0,0,31.024,9.52H28.736a1.324,1.324,0,0,1-1.456.88c-1.136,0-1.664-1.008-1.664-2.048ZM25.664,6.944c.1-1.024.544-1.776,1.632-1.776,1.12,0,1.5.816,1.52,1.776ZM37.9,9.328a1.411,1.411,0,0,1-1.424,1.088c-.992,0-1.632-.8-1.632-2.576,0-1.6.592-2.512,1.648-2.512A1.3,1.3,0,0,1,37.92,6.464h2.224a3.262,3.262,0,0,0-3.6-2.944c-2.528,0-4.016,1.952-4.016,4.4,0,2.5,1.328,4.272,3.9,4.272a3.427,3.427,0,0,0,3.712-2.864ZM41.088,5.44h1.28V9.792c0,1.456.528,2.32,2.144,2.32a4.974,4.974,0,0,0,1.536-.16V10.384c-.16.016-.384.016-.512.016-.688,0-.88-.24-.88-.864V5.44h1.632V3.712H44.656V1.472H42.368v2.24h-1.28ZM47.712,12h2.3V3.712h-2.3Zm2.3-9.632V.32h-2.3V2.368Zm9.5,5.984a4.842,4.842,0,0,0,.032-.7c0-2.064-.976-4.128-3.808-4.128-2.672,0-4,1.856-4,4.464,0,2.176,1.184,4.208,3.92,4.208A3.623,3.623,0,0,0,59.456,9.52H57.168a1.324,1.324,0,0,1-1.456.88c-1.136,0-1.664-1.008-1.664-2.048ZM54.1,6.944c.1-1.024.544-1.776,1.632-1.776,1.12,0,1.5.816,1.52,1.776Zm6.32-3.232L63.232,12h2.4L68.56,3.712H66.272c-.72,2.4-1.52,4.9-1.76,6.256H64.5c-.16-.992-.816-3.44-1.6-6.256ZM73.392,3.52c-2.624,0-4.176,1.808-4.176,4.368,0,2.464,1.5,4.3,4.064,4.3,2.624,0,4.128-1.84,4.128-4.352C77.408,5.248,75.824,3.52,73.392,3.52Zm-.1,1.808c1.152,0,1.792.816,1.792,2.544,0,1.584-.624,2.528-1.76,2.528-1.1,0-1.792-.944-1.792-2.544C71.536,6.112,72.24,5.328,73.3,5.328ZM86.528,8.352a4.843,4.843,0,0,0,.032-.7c0-2.064-.976-4.128-3.808-4.128-2.672,0-4,1.856-4,4.464,0,2.176,1.184,4.208,3.92,4.208A3.623,3.623,0,0,0,86.464,9.52H84.176a1.324,1.324,0,0,1-1.456.88c-1.136,0-1.664-1.008-1.664-2.048ZM81.1,6.944c.1-1.024.544-1.776,1.632-1.776,1.12,0,1.5.816,1.52,1.776ZM88.32,12h2.3V8.384c0-2.272.992-2.72,2.656-2.672V3.52a2.669,2.669,0,0,0-2.656,1.648c0-.448-.032-1.264-.064-1.456H88.3c.016.7.016,1.424.016,2.256Zm6.4,0h2.3V3.712h-2.3Zm2.3-9.632V.32h-2.3V2.368ZM99.248,12h2.3V7.392c0-1.472.544-2.016,1.52-2.016,1.024,0,1.328.672,1.328,1.616V12h2.288V6.736c0-2.08-1.072-3.216-2.736-3.216a2.52,2.52,0,0,0-2.4,1.248c-.016-.256-.048-.832-.1-1.056H99.232c.016.624.016,1.392.016,2.1Zm17.168-5.9c0-.8.016-1.632.016-2.384h-2.16c-.016.144-.08.64-.1.864-.128-.384-.72-1.056-2.144-1.056-2.064,0-3.616,1.776-3.616,4.368,0,2.224,1.248,4.016,3.424,4.016a2.45,2.45,0,0,0,2.336-1.168v.4c0,1.616-.288,2.528-1.776,2.528a1.307,1.307,0,0,1-1.456-.96h-2.336c.08.944.672,2.624,3.7,2.624,3.136,0,4.112-1.68,4.112-4.336Zm-5.648,1.7c0-1.664.784-2.432,1.776-2.432,1.456,0,1.7.96,1.7,2.352s-.368,2.336-1.744,2.336C111.488,10.048,110.768,9.216,110.768,7.792Z" transform="translate(48.395)" fill="#fff"/>
      <path id="Path_876" data-name="Path 876" d="M0,0H40.47" transform="translate(0 6.778)" fill="none" stroke="#11c6ff" stroke-linecap="square" stroke-width="4"/>
    </g>
    <path id="Path_881" data-name="Path 881" d="M21.12,24h4.608V1.952H18.88c-1.856,5.632-4.256,13.376-4.8,16.256h-.032c-.672-3.264-2.592-10.5-4.32-16.256h-7.1V24H6.976V16.1c0-3.776-.1-8.32-.288-10.912h.16C7.808,9.6,10.08,17.952,11.712,24h4.064C17.888,17.088,20.1,9.76,21.12,5.248h.16c-.1,2.5-.16,6.72-.16,10.464Zm9.248,0h4.608V7.424H30.368ZM34.976,4.736V.64H30.368v4.1Zm4.416,2.688V24.576c0,1.792-.416,2.368-1.888,2.368a1.825,1.825,0,0,1-.416-.032v3.68c.384.032.992.064,1.408.064,4.544,0,5.5-2.272,5.5-7.008V7.424ZM44,4.736V.64H39.392v4.1ZM48.448,24h4.608V14.784c0-2.944,1.088-4.032,3.04-4.032,2.048,0,2.656,1.344,2.656,3.232V24h4.576V13.472c0-4.16-2.144-6.432-5.472-6.432-2.912,0-4.256,1.472-4.8,2.5-.032-.512-.1-1.664-.192-2.112H48.416c.032,1.248.032,2.784.032,4.192Zm26.208-4.992c.384,2.944,2.432,5.376,7.488,5.376,5.024,0,7.136-2.5,7.136-5.248,0-2.432-.8-4.32-6.336-5.6-2.688-.64-3.2-1.024-3.2-1.856,0-.736.512-1.408,2.016-1.408,2.144,0,2.56,1.152,2.72,1.76h4.352c-.128-2.24-1.856-4.992-6.88-4.992-4.992,0-6.688,2.592-6.688,5.024,0,2.336.864,4,6.272,5.344,2.368.576,3.072.992,3.072,2.048,0,1.024-.608,1.632-2.3,1.632s-2.784-.736-3.136-2.08Zm32.672-2.3a9.685,9.685,0,0,0,.064-1.408c0-4.128-1.952-8.256-7.616-8.256-5.344,0-8,3.712-8,8.928,0,4.352,2.368,8.416,7.84,8.416,5.184,0,7.008-3.328,7.584-5.344h-4.576c-.448.992-.992,1.76-2.912,1.76-2.272,0-3.328-2.016-3.328-4.1ZM96.48,13.888c.192-2.048,1.088-3.552,3.264-3.552,2.24,0,3.008,1.632,3.04,3.552ZM110.912,24h4.608V16.768c0-4.544,1.984-5.44,5.312-5.344V7.04c-2.816.032-4.576,1.408-5.312,3.3,0-.9-.064-2.528-.128-2.912H110.88c.032,1.408.032,2.848.032,4.512ZM122.784,7.424,128.416,24h4.8l5.856-16.576H134.5c-1.44,4.8-3.04,9.792-3.52,12.512h-.032c-.32-1.984-1.632-6.88-3.2-12.512ZM141.632,24h4.608V7.424h-4.608ZM146.24,4.736V.64h-4.608v4.1Zm14.272,13.92a2.821,2.821,0,0,1-2.848,2.176c-1.984,0-3.264-1.6-3.264-5.152,0-3.2,1.184-5.024,3.3-5.024a2.59,2.59,0,0,1,2.848,2.272h4.448c-.064-1.856-1.632-5.888-7.2-5.888-5.056,0-8.032,3.9-8.032,8.8,0,4.992,2.656,8.544,7.808,8.544,4.928,0,6.88-2.976,7.424-5.728ZM182.976,16.7a9.686,9.686,0,0,0,.064-1.408c0-4.128-1.952-8.256-7.616-8.256-5.344,0-8,3.712-8,8.928,0,4.352,2.368,8.416,7.84,8.416,5.184,0,7.008-3.328,7.584-5.344h-4.576c-.448.992-.992,1.76-2.912,1.76-2.272,0-3.328-2.016-3.328-4.1Zm-10.848-2.816c.192-2.048,1.088-3.552,3.264-3.552,2.24,0,3.008,1.632,3.04,3.552Zm13.312,5.12c.384,2.944,2.432,5.376,7.488,5.376,5.024,0,7.136-2.5,7.136-5.248,0-2.432-.8-4.32-6.336-5.6-2.688-.64-3.2-1.024-3.2-1.856,0-.736.512-1.408,2.016-1.408,2.144,0,2.56,1.152,2.72,1.76h4.352c-.128-2.24-1.856-4.992-6.88-4.992-4.992,0-6.688,2.592-6.688,5.024,0,2.336.864,4,6.272,5.344,2.368.576,3.072.992,3.072,2.048,0,1.024-.608,1.632-2.3,1.632s-2.784-.736-3.136-2.08Z" transform="translate(497 2058.718)" fill="#fff"/>
  </g>
</svg>
