<svg xmlns="http://www.w3.org/2000/svg" width="831.511" height="322.352" viewBox="0 0 831.511 322.352">
  <g id="services" transform="translate(-1371.009 -2057.358)">
    <g id="List_3" data-name="List 3" transform="translate(1970.009 2192.245)">
      <g id="Group_559" data-name="Group 559" transform="translate(0 173.665)">
        <path id="Path_819" data-name="Path 819" d="M7.408,9.593l.912,2.582h2.512L6.912.986H3.92L.176,12.175H2.528l.848-2.582ZM3.888,7.612c.624-2.03,1.168-3.784,1.44-4.888h.016C5.616,3.73,6.112,5.241,6.9,7.612Zm7.744,2.03c.192,1.494,1.216,2.728,3.744,2.728,2.512,0,3.568-1.267,3.568-2.663,0-1.234-.4-2.192-3.168-2.842-1.344-.325-1.6-.52-1.6-.942,0-.374.256-.715,1.008-.715,1.072,0,1.28.585,1.36.893H18.72c-.064-1.137-.928-2.533-3.44-2.533-2.5,0-3.344,1.315-3.344,2.55,0,1.185.432,2.03,3.136,2.712,1.184.292,1.536.5,1.536,1.039,0,.52-.3.828-1.152.828a1.437,1.437,0,0,1-1.568-1.056Zm8.9-.211c0,.909,0,1.835-.016,2.745H22.7a3.862,3.862,0,0,0,.1-.8,2.228,2.228,0,0,0,2.176.991c2.384,0,3.6-2.144,3.6-4.547,0-2.355-1.12-4.255-3.376-4.255a2.578,2.578,0,0,0-2.368,1.088V.32h-2.3Zm5.728-1.559c0,1.591-.624,2.647-1.792,2.647-1.328,0-1.744-1.088-1.744-2.5,0-1.721.464-2.582,1.776-2.582C25.728,5.436,26.256,6.459,26.256,7.871Zm11.44.6a4.988,4.988,0,0,0,.032-.715c0-2.095-.976-4.19-3.808-4.19-2.672,0-4,1.884-4,4.531,0,2.209,1.184,4.271,3.92,4.271a3.633,3.633,0,0,0,3.792-2.712H35.344a1.324,1.324,0,0,1-1.456.893c-1.136,0-1.664-1.023-1.664-2.079ZM32.272,7.043c.1-1.039.544-1.8,1.632-1.8,1.12,0,1.5.828,1.52,1.8Zm6.656,2.6c.192,1.494,1.216,2.728,3.744,2.728,2.512,0,3.568-1.267,3.568-2.663,0-1.234-.4-2.192-3.168-2.842-1.344-.325-1.6-.52-1.6-.942,0-.374.256-.715,1.008-.715,1.072,0,1.28.585,1.36.893h2.176c-.064-1.137-.928-2.533-3.44-2.533-2.5,0-3.344,1.315-3.344,2.55,0,1.185.432,2.03,3.136,2.712,1.184.292,1.536.5,1.536,1.039,0,.52-.3.828-1.152.828a1.437,1.437,0,0,1-1.568-1.056Zm8.08-4.125h1.28V9.934c0,1.478.528,2.355,2.144,2.355a4.9,4.9,0,0,0,1.536-.162V10.535c-.16.016-.384.016-.512.016-.688,0-.88-.244-.88-.877V5.517h1.632V3.763H50.576V1.489H48.288V3.763h-1.28ZM58.928.32V4.38c-.176-.374-.816-.812-2.016-.812-2.352,0-3.76,1.884-3.76,4.466,0,2.631,1.328,4.336,3.424,4.336A2.481,2.481,0,0,0,58.928,11.3c.016.195.064.617.112.877h2.192c-.016-.763-.016-1.543-.016-2.306V.32ZM55.5,7.985c0-1.591.608-2.55,1.808-2.55,1.5,0,1.712,1.088,1.712,2.533,0,1.2-.192,2.533-1.76,2.533C56.128,10.5,55.5,9.625,55.5,7.985ZM67.1,3.568C64.48,3.568,62.928,5.4,62.928,8c0,2.5,1.5,4.368,4.064,4.368,2.624,0,4.128-1.868,4.128-4.417C71.12,5.322,69.536,3.568,67.1,3.568Zm-.1,1.835c1.152,0,1.792.828,1.792,2.582,0,1.608-.624,2.566-1.76,2.566-1.1,0-1.792-.958-1.792-2.582C65.248,6.2,65.952,5.4,67.008,5.4Zm10.864,4.06a1.415,1.415,0,0,1-1.424,1.1c-.992,0-1.632-.812-1.632-2.615,0-1.624.592-2.55,1.648-2.55a1.3,1.3,0,0,1,1.424,1.153h2.224a3.281,3.281,0,0,0-3.6-2.988c-2.528,0-4.016,1.981-4.016,4.466,0,2.533,1.328,4.336,3.9,4.336a3.441,3.441,0,0,0,3.712-2.907Zm11.088-5.7H86.672V8.245c0,1.656-.432,2.225-1.472,2.225-.992,0-1.28-.763-1.28-1.689V3.763H81.632V9.252c0,2.079,1.072,3.118,2.752,3.118A2.358,2.358,0,0,0,86.672,11.2c.016.292.032.747.064.974h2.24c-.016-.747-.016-1.64-.016-2.436Zm2.224,8.412h2.272V7.482c0-1.445.448-2.03,1.376-2.03.976,0,1.184.715,1.184,1.575v5.148h2.256V7.368c0-1.283.384-1.933,1.344-1.933.944,0,1.216.747,1.216,1.51v5.229h2.24V6.653c0-2.176-1.184-3.086-2.624-3.086a2.893,2.893,0,0,0-2.56,1.283A2.183,2.183,0,0,0,95.76,3.568a2.594,2.594,0,0,0-2.3,1.2c-.016-.325-.064-.8-.1-1.007H91.168c.016.731.016,1.445.016,2.176Zm21.392-3.7a4.989,4.989,0,0,0,.032-.715c0-2.095-.976-4.19-3.808-4.19-2.672,0-4,1.884-4,4.531,0,2.209,1.184,4.271,3.92,4.271a3.633,3.633,0,0,0,3.792-2.712h-2.288a1.324,1.324,0,0,1-1.456.893c-1.136,0-1.664-1.023-1.664-2.079Zm-5.424-1.429c.1-1.039.544-1.8,1.632-1.8,1.12,0,1.5.828,1.52,1.8Zm7.232,5.132h2.3V7.5c0-1.494.544-2.046,1.52-2.046,1.024,0,1.328.682,1.328,1.64v5.083h2.288V6.832c0-2.111-1.072-3.264-2.736-3.264a2.513,2.513,0,0,0-2.4,1.267c-.016-.26-.048-.844-.1-1.072h-2.224c.016.633.016,1.413.016,2.127Zm8.672-6.658h1.28V9.934c0,1.478.528,2.355,2.144,2.355a4.9,4.9,0,0,0,1.536-.162V10.535c-.16.016-.384.016-.512.016-.688,0-.88-.244-.88-.877V5.517h1.632V3.763h-1.632V1.489h-2.288V3.763h-1.28Zm6.656,3.914c0,.909,0,1.835-.016,2.745h2.192a3.861,3.861,0,0,0,.1-.8,2.228,2.228,0,0,0,2.176.991c2.384,0,3.6-2.144,3.6-4.547,0-2.355-1.12-4.255-3.376-4.255a2.578,2.578,0,0,0-2.368,1.088V.32h-2.3Zm5.728-1.559c0,1.591-.624,2.647-1.792,2.647-1.328,0-1.744-1.088-1.744-2.5,0-1.721.464-2.582,1.776-2.582C134.912,5.436,135.44,6.459,135.44,7.871Zm11.44.6a4.989,4.989,0,0,0,.032-.715c0-2.095-.976-4.19-3.808-4.19-2.672,0-4,1.884-4,4.531,0,2.209,1.184,4.271,3.92,4.271a3.633,3.633,0,0,0,3.792-2.712h-2.288a1.324,1.324,0,0,1-1.456.893c-1.136,0-1.664-1.023-1.664-2.079Zm-5.424-1.429c.1-1.039.544-1.8,1.632-1.8,1.12,0,1.5.828,1.52,1.8ZM148.624.32V12.175h2.3V7.709c0-1.283.24-2.257,1.52-2.257.96,0,1.344.585,1.344,1.673v5.051h2.272V6.783c0-2.274-1.232-3.215-2.768-3.215a2.6,2.6,0,0,0-2.368,1.2V.32Zm16.96,8.152a4.989,4.989,0,0,0,.032-.715c0-2.095-.976-4.19-3.808-4.19-2.672,0-4,1.884-4,4.531,0,2.209,1.184,4.271,3.92,4.271a3.633,3.633,0,0,0,3.792-2.712h-2.288a1.324,1.324,0,0,1-1.456.893c-1.136,0-1.664-1.023-1.664-2.079ZM160.16,7.043c.1-1.039.544-1.8,1.632-1.8,1.12,0,1.5.828,1.52,1.8Zm14.608,1.429a4.989,4.989,0,0,0,.032-.715c0-2.095-.976-4.19-3.808-4.19-2.672,0-4,1.884-4,4.531,0,2.209,1.184,4.271,3.92,4.271A3.633,3.633,0,0,0,174.7,9.658h-2.288a1.324,1.324,0,0,1-1.456.893c-1.136,0-1.664-1.023-1.664-2.079Zm-5.424-1.429c.1-1.039.544-1.8,1.632-1.8,1.12,0,1.5.828,1.52,1.8Zm7.216,5.132h2.3V8.5c0-2.306.992-2.761,2.656-2.712V3.568a2.668,2.668,0,0,0-2.656,1.673c0-.455-.032-1.283-.064-1.478h-2.256c.016.715.016,1.445.016,2.29Z" transform="translate(50.991 -0.32)" fill="#fff"/>
        <path id="Path_844" data-name="Path 844" d="M0,0H40" transform="translate(0 6.435)" fill="none" stroke="#11c6ff" stroke-linecap="square" stroke-width="4"/>
      </g>
      <g id="Group_557" data-name="Group 557" transform="translate(0 89.083)">
        <path id="Path_820" data-name="Path 820" d="M5.552,12.175C6.144,9.918,7.136,6.15,7.536,4.153h.016c.384,1.916,1.36,5.538,1.936,8.022h2.48L14.944.986h-2.3c-.4,1.738-1.472,6.074-1.84,8.542h-.016c-.368-2.062-1.472-6.4-2.048-8.542H6.592c-.64,2.7-1.712,6.593-2.128,8.656H4.448C4.32,8.407,3.856,6.118,2.816.986H.272L3.088,12.175Zm17.424-3.7a4.989,4.989,0,0,0,.032-.715c0-2.095-.976-4.19-3.808-4.19-2.672,0-4,1.884-4,4.531,0,2.209,1.184,4.271,3.92,4.271a3.633,3.633,0,0,0,3.792-2.712H20.624a1.324,1.324,0,0,1-1.456.893c-1.136,0-1.664-1.023-1.664-2.079ZM17.552,7.043c.1-1.039.544-1.8,1.632-1.8,1.12,0,1.5.828,1.52,1.8Zm7.216,5.132h2.3V8.5c0-2.306.992-2.761,2.656-2.712V3.568a2.668,2.668,0,0,0-2.656,1.673c0-.455-.032-1.283-.064-1.478H24.752c.016.715.016,1.445.016,2.29ZM33.472.32h-2.3V12.175h2.3v-2.7L34.528,8.44l2.1,3.735h2.592L36.064,6.946l2.88-3.183H36.32c-1.152,1.413-2.24,2.712-2.848,3.556Zm8.944,15.07V11.428a2.3,2.3,0,0,0,2.1.942c2,0,3.6-1.64,3.6-4.612,0-2.6-1.424-4.19-3.3-4.19a2.6,2.6,0,0,0-2.4,1.25,9.8,9.8,0,0,0-.08-1.056H40.112c.016.682.016,1.348.016,2.03v9.6Zm3.376-7.535c0,1.705-.592,2.663-1.808,2.663-1.232,0-1.664-.926-1.664-2.533,0-1.689.464-2.55,1.76-2.55C45.184,5.436,45.792,6.312,45.792,7.855Zm6.368,4.32V.32h-2.3V12.175Zm9.5-3.7a4.988,4.988,0,0,0,.032-.715c0-2.095-.976-4.19-3.808-4.19-2.672,0-4,1.884-4,4.531,0,2.209,1.184,4.271,3.92,4.271A3.633,3.633,0,0,0,61.6,9.658H59.312a1.324,1.324,0,0,1-1.456.893c-1.136,0-1.664-1.023-1.664-2.079ZM56.24,7.043c.1-1.039.544-1.8,1.632-1.8,1.12,0,1.5.828,1.52,1.8ZM65.712.32h-2.3V12.175h2.3v-2.7L66.768,8.44l2.1,3.735h2.592L68.3,6.946l2.88-3.183H68.56c-1.152,1.413-2.24,2.712-2.848,3.556ZM72.48,12.175h2.3V3.763h-2.3Zm2.3-9.776V.32h-2.3V2.4Zm2.224,9.776h2.3V7.5c0-1.494.544-2.046,1.52-2.046,1.024,0,1.328.682,1.328,1.64v5.083h2.288V6.832c0-2.111-1.072-3.264-2.736-3.264a2.513,2.513,0,0,0-2.4,1.267c-.016-.26-.048-.844-.1-1.072H76.992c.016.633.016,1.413.016,2.127Zm8.928-2.533c.192,1.494,1.216,2.728,3.744,2.728,2.512,0,3.568-1.267,3.568-2.663,0-1.234-.4-2.192-3.168-2.842-1.344-.325-1.6-.52-1.6-.942,0-.374.256-.715,1.008-.715,1.072,0,1.28.585,1.36.893h2.176c-.064-1.137-.928-2.533-3.44-2.533-2.5,0-3.344,1.315-3.344,2.55,0,1.185.432,2.03,3.136,2.712,1.184.292,1.536.5,1.536,1.039,0,.52-.3.828-1.152.828a1.437,1.437,0,0,1-1.568-1.056ZM97.152,15.39V11.428a2.3,2.3,0,0,0,2.1.942c2,0,3.6-1.64,3.6-4.612,0-2.6-1.424-4.19-3.3-4.19a2.6,2.6,0,0,0-2.4,1.25,9.8,9.8,0,0,0-.08-1.056H94.848c.016.682.016,1.348.016,2.03v9.6Zm3.376-7.535c0,1.705-.592,2.663-1.808,2.663-1.232,0-1.664-.926-1.664-2.533,0-1.689.464-2.55,1.76-2.55C99.92,5.436,100.528,6.312,100.528,7.855Zm11.456.617a4.989,4.989,0,0,0,.032-.715c0-2.095-.976-4.19-3.808-4.19-2.672,0-4,1.884-4,4.531,0,2.209,1.184,4.271,3.92,4.271a3.633,3.633,0,0,0,3.792-2.712h-2.288a1.324,1.324,0,0,1-1.456.893c-1.136,0-1.664-1.023-1.664-2.079ZM106.56,7.043c.1-1.039.544-1.8,1.632-1.8,1.12,0,1.5.828,1.52,1.8Zm12.24,2.42a1.415,1.415,0,0,1-1.424,1.1c-.992,0-1.632-.812-1.632-2.615,0-1.624.592-2.55,1.648-2.55a1.3,1.3,0,0,1,1.424,1.153h2.224a3.281,3.281,0,0,0-3.6-2.988c-2.528,0-4.016,1.981-4.016,4.466,0,2.533,1.328,4.336,3.9,4.336a3.441,3.441,0,0,0,3.712-2.907Zm3.184-3.946h1.28V9.934c0,1.478.528,2.355,2.144,2.355a4.9,4.9,0,0,0,1.536-.162V10.535c-.16.016-.384.016-.512.016-.688,0-.88-.244-.88-.877V5.517h1.632V3.763h-1.632V1.489h-2.288V3.763h-1.28Zm6.624,6.658h2.3V3.763h-2.3Zm2.3-9.776V.32h-2.3V2.4Zm9.5,6.074a4.989,4.989,0,0,0,.032-.715c0-2.095-.976-4.19-3.808-4.19-2.672,0-4,1.884-4,4.531,0,2.209,1.184,4.271,3.92,4.271a3.633,3.633,0,0,0,3.792-2.712h-2.288a1.324,1.324,0,0,1-1.456.893c-1.136,0-1.664-1.023-1.664-2.079Zm-5.424-1.429c.1-1.039.544-1.8,1.632-1.8,1.12,0,1.5.828,1.52,1.8Zm6.656,2.6c.192,1.494,1.216,2.728,3.744,2.728,2.512,0,3.568-1.267,3.568-2.663,0-1.234-.4-2.192-3.168-2.842-1.344-.325-1.6-.52-1.6-.942,0-.374.256-.715,1.008-.715,1.072,0,1.28.585,1.36.893h2.176c-.064-1.137-.928-2.533-3.44-2.533-2.5,0-3.344,1.315-3.344,2.55,0,1.185.432,2.03,3.136,2.712,1.184.292,1.536.5,1.536,1.039,0,.52-.3.828-1.152.828A1.437,1.437,0,0,1,143.9,9.642Z" transform="translate(49.991 -0.32)" fill="#fff"/>
        <path id="Path_843" data-name="Path 843" d="M0,0H40" transform="translate(0 7.334)" fill="none" stroke="#11c6ff" stroke-linecap="square" stroke-width="4"/>
      </g>
      <g id="Group_556" data-name="Group 556" transform="translate(0 0)">
        <path id="Path_2" data-name="Path 2" d="M0,0H40" transform="translate(0 6.248)" fill="none" stroke="#11c6ff" stroke-linecap="square" stroke-width="4"/>
        <path id="Path_821" data-name="Path 821" d="M1.312.986V12.175H3.7V.986ZM5.968,12.175h2.3V7.5c0-1.494.544-2.046,1.52-2.046,1.024,0,1.328.682,1.328,1.64v5.083h2.288V6.832c0-2.111-1.072-3.264-2.736-3.264a2.513,2.513,0,0,0-2.4,1.267c-.016-.26-.048-.844-.1-1.072H5.952c.016.633.016,1.413.016,2.127ZM14.64,5.517h1.28V9.934c0,1.478.528,2.355,2.144,2.355a4.9,4.9,0,0,0,1.536-.162V10.535c-.16.016-.384.016-.512.016-.688,0-.88-.244-.88-.877V5.517H19.84V3.763H18.208V1.489H15.92V3.763H14.64Zm13.9,2.956a4.989,4.989,0,0,0,.032-.715c0-2.095-.976-4.19-3.808-4.19-2.672,0-4,1.884-4,4.531,0,2.209,1.184,4.271,3.92,4.271A3.633,3.633,0,0,0,28.48,9.658H26.192a1.324,1.324,0,0,1-1.456.893c-1.136,0-1.664-1.023-1.664-2.079ZM23.12,7.043c.1-1.039.544-1.8,1.632-1.8,1.12,0,1.5.828,1.52,1.8Zm7.216,5.132h2.3V8.5c0-2.306.992-2.761,2.656-2.712V3.568A2.668,2.668,0,0,0,32.64,5.241c0-.455-.032-1.283-.064-1.478H30.32c.016.715.016,1.445.016,2.29Zm6.352,0h2.3V7.5c0-1.494.544-2.046,1.52-2.046,1.024,0,1.328.682,1.328,1.64v5.083h2.288V6.832c0-2.111-1.072-3.264-2.736-3.264a2.513,2.513,0,0,0-2.4,1.267c-.016-.26-.048-.844-.1-1.072H36.672c.016.633.016,1.413.016,2.127Zm16.928-3.7a4.988,4.988,0,0,0,.032-.715c0-2.095-.976-4.19-3.808-4.19-2.672,0-4,1.884-4,4.531,0,2.209,1.184,4.271,3.92,4.271a3.633,3.633,0,0,0,3.792-2.712H51.264a1.324,1.324,0,0,1-1.456.893c-1.136,0-1.664-1.023-1.664-2.079ZM48.192,7.043c.1-1.039.544-1.8,1.632-1.8,1.12,0,1.5.828,1.52,1.8ZM61.7.32h-2.3V12.175h2.3v-2.7L62.752,8.44l2.1,3.735H67.44L64.288,6.946l2.88-3.183H64.544C63.392,5.176,62.3,6.475,61.7,7.319ZM75.52,6.475c0-2.014-1.216-2.891-3.424-2.907-2.528,0-3.44,1.2-3.552,2.7H70.72c.1-.617.32-1.023,1.28-1.023,1.072,0,1.28.585,1.28,1.185v.5H72.1c-2.432,0-3.936.893-3.936,2.809a2.569,2.569,0,0,0,2.832,2.631,2.438,2.438,0,0,0,2.336-1.023,3.338,3.338,0,0,0,.112.828h2.192A19,19,0,0,1,75.52,10ZM73.28,8.57c0,1.1-.176,2.144-1.632,2.144a1.076,1.076,0,0,1-1.2-1.121c0-.812.512-1.25,1.9-1.25h.928Zm4.48,3.605h2.3V7.5c0-1.494.544-2.046,1.52-2.046,1.024,0,1.328.682,1.328,1.64v5.083H85.2V6.832c0-2.111-1.072-3.264-2.736-3.264a2.513,2.513,0,0,0-2.4,1.267c-.016-.26-.048-.844-.1-1.072H77.744c.016.633.016,1.413.016,2.127Zm8.672-6.658h1.28V9.934c0,1.478.528,2.355,2.144,2.355a4.9,4.9,0,0,0,1.536-.162V10.535c-.16.016-.384.016-.512.016-.688,0-.88-.244-.88-.877V5.517h1.632V3.763H90V1.489H87.712V3.763h-1.28Zm10.3-1.949C94.112,3.568,92.56,5.4,92.56,8c0,2.5,1.5,4.368,4.064,4.368,2.624,0,4.128-1.868,4.128-4.417C100.752,5.322,99.168,3.568,96.736,3.568ZM96.64,5.4c1.152,0,1.792.828,1.792,2.582,0,1.608-.624,2.566-1.76,2.566-1.1,0-1.792-.958-1.792-2.582C94.88,6.2,95.584,5.4,96.64,5.4Zm9.632-1.835C103.648,3.568,102.1,5.4,102.1,8c0,2.5,1.5,4.368,4.064,4.368,2.624,0,4.128-1.868,4.128-4.417C110.288,5.322,108.7,3.568,106.272,3.568Zm-.1,1.835c1.152,0,1.792.828,1.792,2.582,0,1.608-.624,2.566-1.76,2.566-1.1,0-1.792-.958-1.792-2.582C104.416,6.2,105.12,5.4,106.176,5.4Zm5.84,6.772h2.3V8.5c0-2.306.992-2.761,2.656-2.712V3.568a2.668,2.668,0,0,0-2.656,1.673c0-.455-.032-1.283-.064-1.478H112c.016.715.016,1.445.016,2.29Zm13.072-5.7c0-2.014-1.216-2.891-3.424-2.907-2.528,0-3.44,1.2-3.552,2.7h2.176c.1-.617.32-1.023,1.28-1.023,1.072,0,1.28.585,1.28,1.185v.5h-1.184c-2.432,0-3.936.893-3.936,2.809a2.569,2.569,0,0,0,2.832,2.631,2.438,2.438,0,0,0,2.336-1.023,3.338,3.338,0,0,0,.112.828H125.2A19,19,0,0,1,125.088,10Zm-2.24,2.095c0,1.1-.176,2.144-1.632,2.144a1.076,1.076,0,0,1-1.2-1.121c0-.812.512-1.25,1.9-1.25h.928ZM134.56,3.763h-2.288V8.245c0,1.656-.432,2.225-1.472,2.225-.992,0-1.28-.763-1.28-1.689V3.763h-2.288V9.252c0,2.079,1.072,3.118,2.752,3.118a2.358,2.358,0,0,0,2.288-1.169c.016.292.032.747.064.974h2.24c-.016-.747-.016-1.64-.016-2.436ZM142.16.32V4.38c-.176-.374-.816-.812-2.016-.812-2.352,0-3.76,1.884-3.76,4.466,0,2.631,1.328,4.336,3.424,4.336A2.481,2.481,0,0,0,142.16,11.3c.016.195.064.617.112.877h2.192c-.016-.763-.016-1.543-.016-2.306V.32Zm-3.424,7.665c0-1.591.608-2.55,1.808-2.55,1.5,0,1.712,1.088,1.712,2.533,0,1.2-.192,2.533-1.76,2.533C139.36,10.5,138.736,9.625,138.736,7.985Zm7.9,4.19h2.3V3.763h-2.3Zm2.3-9.776V.32h-2.3V2.4Zm1.408,3.118h1.28V9.934c0,1.478.528,2.355,2.144,2.355a4.9,4.9,0,0,0,1.536-.162V10.535c-.16.016-.384.016-.512.016-.688,0-.88-.244-.88-.877V5.517h1.632V3.763H153.92V1.489h-2.288V3.763h-1.28ZM156.5,9.642c.192,1.494,1.216,2.728,3.744,2.728,2.512,0,3.568-1.267,3.568-2.663,0-1.234-.4-2.192-3.168-2.842-1.344-.325-1.6-.52-1.6-.942,0-.374.256-.715,1.008-.715,1.072,0,1.28.585,1.36.893h2.176c-.064-1.137-.928-2.533-3.44-2.533-2.5,0-3.344,1.315-3.344,2.55,0,1.185.432,2.03,3.136,2.712,1.184.292,1.536.5,1.536,1.039,0,.52-.3.828-1.152.828a1.437,1.437,0,0,1-1.568-1.056Z" transform="translate(48.991 -0.32)" fill="#fff"/>
      </g>
    </g>
    <g id="List_2" data-name="List 2" transform="translate(1606.009 2192.125)">
      <g id="Group_558" data-name="Group 558" transform="translate(0 172.352)">
        <path id="Path_823" data-name="Path 823" d="M6.72,12.175l4-11.189H8.288L6.56,6.183a41.236,41.236,0,0,0-1.184,4.011H5.344C5.088,9.041,4.72,7.709,4.208,6.15L2.576.986H.016L3.9,12.175Zm11.536-3.7a4.988,4.988,0,0,0,.032-.715c0-2.095-.976-4.19-3.808-4.19-2.672,0-4,1.884-4,4.531,0,2.209,1.184,4.271,3.92,4.271a3.633,3.633,0,0,0,3.792-2.712H15.9a1.324,1.324,0,0,1-1.456.893c-1.136,0-1.664-1.023-1.664-2.079ZM12.832,7.043c.1-1.039.544-1.8,1.632-1.8,1.12,0,1.5.828,1.52,1.8Zm7.216,5.132h2.3V3.763h-2.3Zm2.3-9.776V.32h-2.3V2.4Zm4.512,9.776V.32h-2.3V12.175Zm2.208,0h2.3V3.763h-2.3Zm2.3-9.776V.32h-2.3V2.4ZM41.12,6.183c0-.812.016-1.656.016-2.42h-2.16c-.016.146-.08.65-.1.877-.128-.39-.72-1.072-2.144-1.072-2.064,0-3.616,1.8-3.616,4.433,0,2.257,1.248,4.076,3.424,4.076a2.44,2.44,0,0,0,2.336-1.185V11.3c0,1.64-.288,2.566-1.776,2.566a1.309,1.309,0,0,1-1.456-.974H33.312c.08.958.672,2.663,3.7,2.663,3.136,0,4.112-1.705,4.112-4.4ZM35.472,7.9c0-1.689.784-2.468,1.776-2.468,1.456,0,1.7.974,1.7,2.387s-.368,2.371-1.744,2.371C36.192,10.194,35.472,9.349,35.472,7.9ZM43.312.32V12.175h2.3V7.709c0-1.283.24-2.257,1.52-2.257.96,0,1.344.585,1.344,1.673v5.051h2.272V6.783c0-2.274-1.232-3.215-2.768-3.215a2.6,2.6,0,0,0-2.368,1.2V.32Zm16.96,8.152a4.988,4.988,0,0,0,.032-.715c0-2.095-.976-4.19-3.808-4.19-2.672,0-4,1.884-4,4.531,0,2.209,1.184,4.271,3.92,4.271a3.633,3.633,0,0,0,3.792-2.712H57.92a1.324,1.324,0,0,1-1.456.893c-1.136,0-1.664-1.023-1.664-2.079ZM54.848,7.043c.1-1.039.544-1.8,1.632-1.8,1.12,0,1.5.828,1.52,1.8Zm7.216,5.132h2.3V3.763h-2.3Zm2.3-9.776V.32h-2.3V2.4ZM71.888.32V4.38c-.176-.374-.816-.812-2.016-.812-2.352,0-3.76,1.884-3.76,4.466,0,2.631,1.328,4.336,3.424,4.336A2.481,2.481,0,0,0,71.888,11.3c.016.195.064.617.112.877h2.192c-.016-.763-.016-1.543-.016-2.306V.32ZM68.464,7.985c0-1.591.608-2.55,1.808-2.55,1.5,0,1.712,1.088,1.712,2.533,0,1.2-.192,2.533-1.76,2.533C69.088,10.5,68.464,9.625,68.464,7.985Zm7.9,1.445c0,.909,0,1.835-.016,2.745h2.192a3.861,3.861,0,0,0,.1-.8,2.228,2.228,0,0,0,2.176.991c2.384,0,3.6-2.144,3.6-4.547,0-2.355-1.12-4.255-3.376-4.255a2.578,2.578,0,0,0-2.368,1.088V.32h-2.3ZM82.1,7.871c0,1.591-.624,2.647-1.792,2.647-1.328,0-1.744-1.088-1.744-2.5,0-1.721.464-2.582,1.776-2.582C81.568,5.436,82.1,6.459,82.1,7.871Zm11.44.6a4.989,4.989,0,0,0,.032-.715c0-2.095-.976-4.19-3.808-4.19-2.672,0-4,1.884-4,4.531,0,2.209,1.184,4.271,3.92,4.271a3.633,3.633,0,0,0,3.792-2.712H91.184a1.324,1.324,0,0,1-1.456.893c-1.136,0-1.664-1.023-1.664-2.079ZM88.112,7.043c.1-1.039.544-1.8,1.632-1.8,1.12,0,1.5.828,1.52,1.8ZM99.12,3.568C96.5,3.568,94.944,5.4,94.944,8c0,2.5,1.5,4.368,4.064,4.368,2.624,0,4.128-1.868,4.128-4.417C103.136,5.322,101.552,3.568,99.12,3.568Zm-.1,1.835c1.152,0,1.792.828,1.792,2.582,0,1.608-.624,2.566-1.76,2.566-1.1,0-1.792-.958-1.792-2.582C97.264,6.2,97.968,5.4,99.024,5.4Zm9.632-1.835c-2.624,0-4.176,1.835-4.176,4.433,0,2.5,1.5,4.368,4.064,4.368,2.624,0,4.128-1.868,4.128-4.417C112.672,5.322,111.088,3.568,108.656,3.568Zm-.1,1.835c1.152,0,1.792.828,1.792,2.582,0,1.608-.624,2.566-1.76,2.566-1.1,0-1.792-.958-1.792-2.582C106.8,6.2,107.5,5.4,108.56,5.4Zm5.84,6.772h2.3V8.5c0-2.306.992-2.761,2.656-2.712V3.568A2.668,2.668,0,0,0,116.7,5.241c0-.455-.032-1.283-.064-1.478h-2.256c.016.715.016,1.445.016,2.29ZM126.032.32V4.38c-.176-.374-.816-.812-2.016-.812-2.352,0-3.76,1.884-3.76,4.466,0,2.631,1.328,4.336,3.424,4.336a2.481,2.481,0,0,0,2.352-1.072c.016.195.064.617.112.877h2.192c-.016-.763-.016-1.543-.016-2.306V.32Zm-3.424,7.665c0-1.591.608-2.55,1.808-2.55,1.5,0,1.712,1.088,1.712,2.533,0,1.2-.192,2.533-1.76,2.533C123.232,10.5,122.608,9.625,122.608,7.985Zm15.2.487a4.989,4.989,0,0,0,.032-.715c0-2.095-.976-4.19-3.808-4.19-2.672,0-4,1.884-4,4.531,0,2.209,1.184,4.271,3.92,4.271a3.633,3.633,0,0,0,3.792-2.712h-2.288a1.324,1.324,0,0,1-1.456.893c-1.136,0-1.664-1.023-1.664-2.079Zm-5.424-1.429c.1-1.039.544-1.8,1.632-1.8,1.12,0,1.5.828,1.52,1.8Zm9.472,5.132V.32h-2.3V12.175Zm2.208,0h2.3V3.763h-2.3Zm2.3-9.776V.32h-2.3V2.4Zm2.224,9.776h2.3V7.5c0-1.494.544-2.046,1.52-2.046,1.024,0,1.328.682,1.328,1.64v5.083h2.288V6.832c0-2.111-1.072-3.264-2.736-3.264a2.513,2.513,0,0,0-2.4,1.267c-.016-.26-.048-.844-.1-1.072h-2.224c.016.633.016,1.413.016,2.127ZM165.76,6.183c0-.812.016-1.656.016-2.42h-2.16c-.016.146-.08.65-.1.877-.128-.39-.72-1.072-2.144-1.072-2.064,0-3.616,1.8-3.616,4.433,0,2.257,1.248,4.076,3.424,4.076a2.44,2.44,0,0,0,2.336-1.185V11.3c0,1.64-.288,2.566-1.776,2.566a1.309,1.309,0,0,1-1.456-.974h-2.336c.08.958.672,2.663,3.7,2.663,3.136,0,4.112-1.705,4.112-4.4ZM160.112,7.9c0-1.689.784-2.468,1.776-2.468,1.456,0,1.7.974,1.7,2.387s-.368,2.371-1.744,2.371C160.832,10.194,160.112,9.349,160.112,7.9Z" transform="translate(49.588 -0.32)" fill="#fff"/>
        <path id="Path_850" data-name="Path 850" d="M0,0H40" transform="translate(0 7.824)" fill="none" stroke="#11c6ff" stroke-linecap="square" stroke-width="4"/>
      </g>
      <g id="Group_557-2" data-name="Group 557" transform="translate(0 88.558)">
        <path id="Path_822" data-name="Path 822" d="M1.312,12.175H6.3c2.336,0,3.824-1.429,3.824-3.345A2.684,2.684,0,0,0,8.4,6.264a2.526,2.526,0,0,0,1.408-2.42C9.808,2.382,8.8.986,6.128.986H1.312ZM3.648,5.4V2.853H5.936c.912,0,1.52.422,1.52,1.234,0,.8-.464,1.315-1.6,1.315Zm0,1.868H5.792c1.312,0,1.888.568,1.888,1.478,0,1.007-.576,1.559-1.872,1.559H3.648Zm15.632,1.2a4.988,4.988,0,0,0,.032-.715c0-2.095-.976-4.19-3.808-4.19-2.672,0-4,1.884-4,4.531,0,2.209,1.184,4.271,3.92,4.271a3.633,3.633,0,0,0,3.792-2.712H16.928a1.324,1.324,0,0,1-1.456.893c-1.136,0-1.664-1.023-1.664-2.079ZM13.856,7.043c.1-1.039.544-1.8,1.632-1.8,1.12,0,1.5.828,1.52,1.8ZM24.864,3.568C22.24,3.568,20.688,5.4,20.688,8c0,2.5,1.5,4.368,4.064,4.368,2.624,0,4.128-1.868,4.128-4.417C28.88,5.322,27.3,3.568,24.864,3.568Zm-.1,1.835c1.152,0,1.792.828,1.792,2.582,0,1.608-.624,2.566-1.76,2.566-1.1,0-1.792-.958-1.792-2.582C23.008,6.2,23.712,5.4,24.768,5.4ZM34.4,3.568C31.776,3.568,30.224,5.4,30.224,8c0,2.5,1.5,4.368,4.064,4.368,2.624,0,4.128-1.868,4.128-4.417C38.416,5.322,36.832,3.568,34.4,3.568ZM34.3,5.4c1.152,0,1.792.828,1.792,2.582,0,1.608-.624,2.566-1.76,2.566-1.1,0-1.792-.958-1.792-2.582C32.544,6.2,33.248,5.4,34.3,5.4Zm5.84,6.772h2.3V8.5c0-2.306.992-2.761,2.656-2.712V3.568a2.668,2.668,0,0,0-2.656,1.673c0-.455-.032-1.283-.064-1.478H40.128c.016.715.016,1.445.016,2.29ZM51.776.32V4.38c-.176-.374-.816-.812-2.016-.812C47.408,3.568,46,5.452,46,8.034c0,2.631,1.328,4.336,3.424,4.336A2.481,2.481,0,0,0,51.776,11.3c.016.195.064.617.112.877H54.08c-.016-.763-.016-1.543-.016-2.306V.32ZM48.352,7.985c0-1.591.608-2.55,1.808-2.55,1.5,0,1.712,1.088,1.712,2.533,0,1.2-.192,2.533-1.76,2.533C48.976,10.5,48.352,9.625,48.352,7.985Zm15.2.487a4.988,4.988,0,0,0,.032-.715c0-2.095-.976-4.19-3.808-4.19-2.672,0-4,1.884-4,4.531,0,2.209,1.184,4.271,3.92,4.271a3.633,3.633,0,0,0,3.792-2.712H61.2a1.324,1.324,0,0,1-1.456.893c-1.136,0-1.664-1.023-1.664-2.079ZM58.128,7.043c.1-1.039.544-1.8,1.632-1.8,1.12,0,1.5.828,1.52,1.8ZM67.6,12.175V.32H65.3V12.175Zm2.208,0h2.3V3.763h-2.3Zm2.3-9.776V.32h-2.3V2.4Zm2.224,9.776h2.3V7.5c0-1.494.544-2.046,1.52-2.046,1.024,0,1.328.682,1.328,1.64v5.083h2.288V6.832c0-2.111-1.072-3.264-2.736-3.264a2.513,2.513,0,0,0-2.4,1.267c-.016-.26-.048-.844-.1-1.072H74.32c.016.633.016,1.413.016,2.127ZM91.5,6.183c0-.812.016-1.656.016-2.42H89.36c-.016.146-.08.65-.1.877-.128-.39-.72-1.072-2.144-1.072C85.056,3.568,83.5,5.371,83.5,8c0,2.257,1.248,4.076,3.424,4.076a2.44,2.44,0,0,0,2.336-1.185V11.3c0,1.64-.288,2.566-1.776,2.566a1.309,1.309,0,0,1-1.456-.974H83.7c.08.958.672,2.663,3.7,2.663,3.136,0,4.112-1.705,4.112-4.4ZM85.856,7.9c0-1.689.784-2.468,1.776-2.468,1.456,0,1.7.974,1.7,2.387s-.368,2.371-1.744,2.371C86.576,10.194,85.856,9.349,85.856,7.9Zm11.872,4.271h2.3V3.763h-2.3Zm2.3-9.776V.32h-2.3V2.4Zm2.224,9.776h2.3V7.5c0-1.494.544-2.046,1.52-2.046,1.024,0,1.328.682,1.328,1.64v5.083H109.7V6.832c0-2.111-1.072-3.264-2.736-3.264a2.513,2.513,0,0,0-2.4,1.267c-.016-.26-.048-.844-.1-1.072H102.24c.016.633.016,1.413.016,2.127Zm8.592-8.412,2.816,8.412h2.4l2.928-8.412H116.7c-.72,2.436-1.52,4.969-1.76,6.35h-.016c-.16-1.007-.816-3.492-1.6-6.35Zm16.576,4.71a4.989,4.989,0,0,0,.032-.715c0-2.095-.976-4.19-3.808-4.19-2.672,0-4,1.884-4,4.531,0,2.209,1.184,4.271,3.92,4.271a3.633,3.633,0,0,0,3.792-2.712h-2.288a1.324,1.324,0,0,1-1.456.893c-1.136,0-1.664-1.023-1.664-2.079ZM122,7.043c.1-1.039.544-1.8,1.632-1.8,1.12,0,1.5.828,1.52,1.8Zm7.232,5.132h2.3V7.5c0-1.494.544-2.046,1.52-2.046,1.024,0,1.328.682,1.328,1.64v5.083h2.288V6.832c0-2.111-1.072-3.264-2.736-3.264a2.513,2.513,0,0,0-2.4,1.267c-.016-.26-.048-.844-.1-1.072h-2.224c.016.633.016,1.413.016,2.127ZM137.9,5.517h1.28V9.934c0,1.478.528,2.355,2.144,2.355a4.9,4.9,0,0,0,1.536-.162V10.535c-.16.016-.384.016-.512.016-.688,0-.88-.244-.88-.877V5.517H143.1V3.763h-1.632V1.489h-2.288V3.763H137.9Zm13.552.958c0-2.014-1.216-2.891-3.424-2.907-2.528,0-3.44,1.2-3.552,2.7h2.176c.1-.617.32-1.023,1.28-1.023,1.072,0,1.28.585,1.28,1.185v.5h-1.184c-2.432,0-3.936.893-3.936,2.809a2.569,2.569,0,0,0,2.832,2.631,2.438,2.438,0,0,0,2.336-1.023,3.337,3.337,0,0,0,.112.828h2.192A19,19,0,0,1,151.456,10Zm-2.24,2.095c0,1.1-.176,2.144-1.632,2.144a1.076,1.076,0,0,1-1.2-1.121c0-.812.512-1.25,1.9-1.25h.928Zm4.464,3.605h2.3V8.5c0-2.306.992-2.761,2.656-2.712V3.568a2.668,2.668,0,0,0-2.656,1.673c0-.455-.032-1.283-.064-1.478h-2.256c.016.715.016,1.445.016,2.29Zm6.4,0h2.3V3.763h-2.3Zm2.3-9.776V.32h-2.3V2.4Zm1.568,7.243c.192,1.494,1.216,2.728,3.744,2.728,2.512,0,3.568-1.267,3.568-2.663,0-1.234-.4-2.192-3.168-2.842-1.344-.325-1.6-.52-1.6-.942,0-.374.256-.715,1.008-.715,1.072,0,1.28.585,1.36.893h2.176c-.064-1.137-.928-2.533-3.44-2.533-2.5,0-3.344,1.315-3.344,2.55,0,1.185.432,2.03,3.136,2.712,1.184.292,1.536.5,1.536,1.039,0,.52-.3.828-1.152.828a1.437,1.437,0,0,1-1.568-1.056Zm15.92-3.167c0-2.014-1.216-2.891-3.424-2.907-2.528,0-3.44,1.2-3.552,2.7h2.176c.1-.617.32-1.023,1.28-1.023,1.072,0,1.28.585,1.28,1.185v.5h-1.184c-2.432,0-3.936.893-3.936,2.809a2.569,2.569,0,0,0,2.832,2.631,2.438,2.438,0,0,0,2.336-1.023,3.337,3.337,0,0,0,.112.828h2.192A19,19,0,0,1,179.872,10Zm-2.24,2.095c0,1.1-.176,2.144-1.632,2.144a1.076,1.076,0,0,1-1.2-1.121c0-.812.512-1.25,1.9-1.25h.928Zm3.5-3.053h1.28V9.934c0,1.478.528,2.355,2.144,2.355a4.9,4.9,0,0,0,1.536-.162V10.535c-.16.016-.384.016-.512.016-.688,0-.88-.244-.88-.877V5.517h1.632V3.763H184.7V1.489h-2.288V3.763h-1.28Zm6.624,6.658h2.3V3.763h-2.3Zm2.3-9.776V.32h-2.3V2.4Zm9.5,6.074a4.989,4.989,0,0,0,.032-.715c0-2.095-.976-4.19-3.808-4.19-2.672,0-4,1.884-4,4.531,0,2.209,1.184,4.271,3.92,4.271A3.633,3.633,0,0,0,199.5,9.658h-2.288a1.324,1.324,0,0,1-1.456.893c-1.136,0-1.664-1.023-1.664-2.079Zm-5.424-1.429c.1-1.039.544-1.8,1.632-1.8,1.12,0,1.5.828,1.52,1.8Zm7.216,5.132h2.3V8.5c0-2.306.992-2.761,2.656-2.712V3.568a2.668,2.668,0,0,0-2.656,1.673c0-.455-.032-1.283-.064-1.478h-2.256c.016.715.016,1.445.016,2.29Zm13.072-5.7c0-2.014-1.216-2.891-3.424-2.907-2.528,0-3.44,1.2-3.552,2.7h2.176c.1-.617.32-1.023,1.28-1.023,1.072,0,1.28.585,1.28,1.185v.5h-1.184c-2.432,0-3.936.893-3.936,2.809A2.569,2.569,0,0,0,209.9,12.37a2.438,2.438,0,0,0,2.336-1.023,3.337,3.337,0,0,0,.112.828h2.192A19,19,0,0,1,214.432,10Zm-2.24,2.095c0,1.1-.176,2.144-1.632,2.144a1.076,1.076,0,0,1-1.2-1.121c0-.812.512-1.25,1.9-1.25h.928Zm6.752,6.821V11.428a2.3,2.3,0,0,0,2.1.942c2,0,3.6-1.64,3.6-4.612,0-2.6-1.424-4.19-3.3-4.19a2.6,2.6,0,0,0-2.4,1.25,9.792,9.792,0,0,0-.08-1.056H216.64c.016.682.016,1.348.016,2.03v9.6Zm3.376-7.535c0,1.705-.592,2.663-1.808,2.663-1.232,0-1.664-.926-1.664-2.533,0-1.689.464-2.55,1.76-2.55C221.712,5.436,222.32,6.312,222.32,7.855Zm6.352,7.535V11.428a2.3,2.3,0,0,0,2.1.942c2,0,3.6-1.64,3.6-4.612,0-2.6-1.424-4.19-3.3-4.19a2.6,2.6,0,0,0-2.4,1.25,9.792,9.792,0,0,0-.08-1.056h-2.224c.016.682.016,1.348.016,2.03v9.6Zm3.376-7.535c0,1.705-.592,2.663-1.808,2.663-1.232,0-1.664-.926-1.664-2.533,0-1.689.464-2.55,1.76-2.55C231.44,5.436,232.048,6.312,232.048,7.855ZM239.9,3.568c-2.624,0-4.176,1.835-4.176,4.433,0,2.5,1.5,4.368,4.064,4.368,2.624,0,4.128-1.868,4.128-4.417C243.92,5.322,242.336,3.568,239.9,3.568Zm-.1,1.835c1.152,0,1.792.828,1.792,2.582,0,1.608-.624,2.566-1.76,2.566-1.1,0-1.792-.958-1.792-2.582C238.048,6.2,238.752,5.4,239.808,5.4Zm5.84,6.772h2.3V8.5c0-2.306.992-2.761,2.656-2.712V3.568a2.668,2.668,0,0,0-2.656,1.673c0-.455-.032-1.283-.064-1.478h-2.256c.016.715.016,1.445.016,2.29Zm5.984-6.658h1.28V9.934c0,1.478.528,2.355,2.144,2.355a4.9,4.9,0,0,0,1.536-.162V10.535c-.16.016-.384.016-.512.016-.688,0-.88-.244-.88-.877V5.517h1.632V3.763H255.2V1.489h-2.288V3.763h-1.28Zm13.9,2.956a4.991,4.991,0,0,0,.032-.715c0-2.095-.976-4.19-3.808-4.19-2.672,0-4,1.884-4,4.531,0,2.209,1.184,4.271,3.92,4.271a3.633,3.633,0,0,0,3.792-2.712h-2.288a1.324,1.324,0,0,1-1.456.893c-1.136,0-1.664-1.023-1.664-2.079Zm-5.424-1.429c.1-1.039.544-1.8,1.632-1.8,1.12,0,1.5.828,1.52,1.8Zm7.232,5.132h2.3V7.5c0-1.494.544-2.046,1.52-2.046,1.024,0,1.328.682,1.328,1.64v5.083h2.288V6.832c0-2.111-1.072-3.264-2.736-3.264a2.513,2.513,0,0,0-2.4,1.267c-.016-.26-.048-.844-.1-1.072h-2.224c.016.633.016,1.413.016,2.127Z" transform="translate(48.991 -0.32)" fill="#fff"/>
        <path id="Path_849" data-name="Path 849" d="M0,0H40" transform="translate(0 7.618)" fill="none" stroke="#11c6ff" stroke-linecap="square" stroke-width="4"/>
      </g>
      <g id="Group_556-2" data-name="Group 556">
        <path id="Path_818" data-name="Path 818" d="M1.312,12.175H3.7V7.336H8.144v4.839h2.384V.986H8.144V5.338H3.7V.986H1.312Zm11.52,0h2.3V3.763h-2.3Zm2.3-9.776V.32h-2.3V2.4ZM16.7,9.642c.192,1.494,1.216,2.728,3.744,2.728,2.512,0,3.568-1.267,3.568-2.663,0-1.234-.4-2.192-3.168-2.842-1.344-.325-1.6-.52-1.6-.942,0-.374.256-.715,1.008-.715,1.072,0,1.28.585,1.36.893h2.176c-.064-1.137-.928-2.533-3.44-2.533-2.5,0-3.344,1.315-3.344,2.55,0,1.185.432,2.03,3.136,2.712,1.184.292,1.536.5,1.536,1.039,0,.52-.3.828-1.152.828A1.437,1.437,0,0,1,18.96,9.642Zm8.08-4.125h1.28V9.934c0,1.478.528,2.355,2.144,2.355a4.9,4.9,0,0,0,1.536-.162V10.535c-.16.016-.384.016-.512.016-.688,0-.88-.244-.88-.877V5.517h1.632V3.763H28.352V1.489H26.064V3.763h-1.28Zm10.3-1.949C32.464,3.568,30.912,5.4,30.912,8c0,2.5,1.5,4.368,4.064,4.368C37.6,12.37,39.1,10.5,39.1,7.953,39.1,5.322,37.52,3.568,35.088,3.568Zm-.1,1.835c1.152,0,1.792.828,1.792,2.582,0,1.608-.624,2.566-1.76,2.566-1.1,0-1.792-.958-1.792-2.582C33.232,6.2,33.936,5.4,34.992,5.4Zm5.84,6.772h2.3V8.5c0-2.306.992-2.761,2.656-2.712V3.568a2.668,2.668,0,0,0-2.656,1.673c0-.455-.032-1.283-.064-1.478H40.816c.016.715.016,1.445.016,2.29Zm6.4,0h2.3V3.763h-2.3Zm2.3-9.776V.32h-2.3V2.4ZM51.1,9.642c.192,1.494,1.216,2.728,3.744,2.728,2.512,0,3.568-1.267,3.568-2.663,0-1.234-.4-2.192-3.168-2.842-1.344-.325-1.6-.52-1.6-.942,0-.374.256-.715,1.008-.715,1.072,0,1.28.585,1.36.893h2.176c-.064-1.137-.928-2.533-3.44-2.533-2.5,0-3.344,1.315-3.344,2.55,0,1.185.432,2.03,3.136,2.712,1.184.292,1.536.5,1.536,1.039,0,.52-.3.828-1.152.828A1.437,1.437,0,0,1,53.36,9.642Zm13.968-.179a1.415,1.415,0,0,1-1.424,1.1c-.992,0-1.632-.812-1.632-2.615,0-1.624.592-2.55,1.648-2.55a1.3,1.3,0,0,1,1.424,1.153h2.224a3.281,3.281,0,0,0-3.6-2.988c-2.528,0-4.016,1.981-4.016,4.466,0,2.533,1.328,4.336,3.9,4.336a3.441,3.441,0,0,0,3.712-2.907ZM68.928.32V12.175h2.3V7.709c0-1.283.24-2.257,1.52-2.257.96,0,1.344.585,1.344,1.673v5.051h2.272V6.783c0-2.274-1.232-3.215-2.768-3.215a2.6,2.6,0,0,0-2.368,1.2V.32ZM89.5,6.475c0-2.014-1.216-2.891-3.424-2.907-2.528,0-3.44,1.2-3.552,2.7H84.7c.1-.617.32-1.023,1.28-1.023,1.072,0,1.28.585,1.28,1.185v.5H86.08c-2.432,0-3.936.893-3.936,2.809a2.569,2.569,0,0,0,2.832,2.631,2.438,2.438,0,0,0,2.336-1.023,3.338,3.338,0,0,0,.112.828h2.192A19,19,0,0,1,89.5,10ZM87.264,8.57c0,1.1-.176,2.144-1.632,2.144a1.076,1.076,0,0,1-1.2-1.121c0-.812.512-1.25,1.9-1.25h.928Zm3.76,1.072c.192,1.494,1.216,2.728,3.744,2.728,2.512,0,3.568-1.267,3.568-2.663,0-1.234-.4-2.192-3.168-2.842-1.344-.325-1.6-.52-1.6-.942,0-.374.256-.715,1.008-.715,1.072,0,1.28.585,1.36.893h2.176c-.064-1.137-.928-2.533-3.44-2.533-2.5,0-3.344,1.315-3.344,2.55,0,1.185.432,2.03,3.136,2.712,1.184.292,1.536.5,1.536,1.039,0,.52-.3.828-1.152.828A1.437,1.437,0,0,1,93.28,9.642Zm8.9-.211c0,.909,0,1.835-.016,2.745H102.1a3.861,3.861,0,0,0,.1-.8,2.228,2.228,0,0,0,2.176.991c2.384,0,3.6-2.144,3.6-4.547,0-2.355-1.12-4.255-3.376-4.255a2.578,2.578,0,0,0-2.368,1.088V.32h-2.3Zm5.728-1.559c0,1.591-.624,2.647-1.792,2.647-1.328,0-1.744-1.088-1.744-2.5,0-1.721.464-2.582,1.776-2.582C105.12,5.436,105.648,6.459,105.648,7.871Zm11.44.6a4.989,4.989,0,0,0,.032-.715c0-2.095-.976-4.19-3.808-4.19-2.672,0-4,1.884-4,4.531,0,2.209,1.184,4.271,3.92,4.271a3.633,3.633,0,0,0,3.792-2.712h-2.288a1.324,1.324,0,0,1-1.456.893c-1.136,0-1.664-1.023-1.664-2.079Zm-5.424-1.429c.1-1.039.544-1.8,1.632-1.8,1.12,0,1.5.828,1.52,1.8Zm6.656,2.6c.192,1.494,1.216,2.728,3.744,2.728,2.512,0,3.568-1.267,3.568-2.663,0-1.234-.4-2.192-3.168-2.842-1.344-.325-1.6-.52-1.6-.942,0-.374.256-.715,1.008-.715,1.072,0,1.28.585,1.36.893h2.176c-.064-1.137-.928-2.533-3.44-2.533-2.5,0-3.344,1.315-3.344,2.55,0,1.185.432,2.03,3.136,2.712,1.184.292,1.536.5,1.536,1.039,0,.52-.3.828-1.152.828a1.437,1.437,0,0,1-1.568-1.056Zm8.08-4.125h1.28V9.934c0,1.478.528,2.355,2.144,2.355a4.9,4.9,0,0,0,1.536-.162V10.535c-.16.016-.384.016-.512.016-.688,0-.88-.244-.88-.877V5.517H131.6V3.763h-1.632V1.489H127.68V3.763H126.4Zm14.5-1.949c-2.624,0-4.176,1.835-4.176,4.433,0,2.5,1.5,4.368,4.064,4.368,2.624,0,4.128-1.868,4.128-4.417C144.912,5.322,143.328,3.568,140.9,3.568ZM140.8,5.4c1.152,0,1.792.828,1.792,2.582,0,1.608-.624,2.566-1.76,2.566-1.1,0-1.792-.958-1.792-2.582C139.04,6.2,139.744,5.4,140.8,5.4Zm5.856,6.772h2.3V7.5c0-1.494.544-2.046,1.52-2.046,1.024,0,1.328.682,1.328,1.64v5.083H154.1V6.832c0-2.111-1.072-3.264-2.736-3.264a2.513,2.513,0,0,0-2.4,1.267c-.016-.26-.048-.844-.1-1.072H146.64c.016.633.016,1.413.016,2.127ZM161.6.32V4.38c-.176-.374-.816-.812-2.016-.812-2.352,0-3.76,1.884-3.76,4.466,0,2.631,1.328,4.336,3.424,4.336A2.481,2.481,0,0,0,161.6,11.3c.016.195.064.617.112.877H163.9c-.016-.763-.016-1.543-.016-2.306V.32Zm-3.424,7.665c0-1.591.608-2.55,1.808-2.55,1.5,0,1.712,1.088,1.712,2.533,0,1.2-.192,2.533-1.76,2.533C158.8,10.5,158.176,9.625,158.176,7.985Zm15.2.487a4.989,4.989,0,0,0,.032-.715c0-2.095-.976-4.19-3.808-4.19-2.672,0-4,1.884-4,4.531,0,2.209,1.184,4.271,3.92,4.271a3.633,3.633,0,0,0,3.792-2.712h-2.288a1.324,1.324,0,0,1-1.456.893c-1.136,0-1.664-1.023-1.664-2.079Zm-5.424-1.429c.1-1.039.544-1.8,1.632-1.8,1.12,0,1.5.828,1.52,1.8Zm7.216,5.132h2.3V8.5c0-2.306.992-2.761,2.656-2.712V3.568a2.668,2.668,0,0,0-2.656,1.673c0-.455-.032-1.283-.064-1.478h-2.256c.016.715.016,1.445.016,2.29Zm6.064,0h6.7l.272-1.835h-4.3l4.016-4.758V3.763h-6.5V5.6h3.9l-4.1,4.823ZM193.28,3.568C190.656,3.568,189.1,5.4,189.1,8c0,2.5,1.5,4.368,4.064,4.368,2.624,0,4.128-1.868,4.128-4.417C197.3,5.322,195.712,3.568,193.28,3.568Zm-.1,1.835c1.152,0,1.792.828,1.792,2.582,0,1.608-.624,2.566-1.76,2.566-1.1,0-1.792-.958-1.792-2.582C191.424,6.2,192.128,5.4,193.184,5.4Zm13.232,3.069a4.989,4.989,0,0,0,.032-.715c0-2.095-.976-4.19-3.808-4.19-2.672,0-4,1.884-4,4.531,0,2.209,1.184,4.271,3.92,4.271a3.633,3.633,0,0,0,3.792-2.712h-2.288a1.324,1.324,0,0,1-1.456.893c-1.136,0-1.664-1.023-1.664-2.079Zm-5.424-1.429c.1-1.039.544-1.8,1.632-1.8,1.12,0,1.5.828,1.52,1.8ZM210.464.32h-2.3V12.175h2.3v-2.7L211.52,8.44l2.1,3.735h2.592l-3.152-5.229,2.88-3.183h-2.624c-1.152,1.413-2.24,2.712-2.848,3.556Z" transform="translate(48.991 -0.32)" fill="#fff"/>
        <path id="Path_848" data-name="Path 848" d="M0,0H40" transform="translate(0 6.367)" fill="none" stroke="#11c6ff" stroke-linecap="square" stroke-width="4"/>
      </g>
    </g>
    <g id="List_1" data-name="List 1" transform="translate(1373.009 2191.244)">
      <g id="Group_560" data-name="Group 560" transform="translate(0 173.458)">
        <path id="Path_817" data-name="Path 817" d="M1.312,12H5.584c3.376,0,5.424-2.432,5.424-5.648A5.023,5.023,0,0,0,5.7.976H1.312ZM3.7,2.9H5.5c2.16,0,3.04,1.648,3.04,3.456,0,2.144-.944,3.728-3.056,3.728H3.7ZM12.96,12h2.3V3.712h-2.3Zm2.3-9.632V.32h-2.3V2.368ZM17.472,12h2.3V8.384c0-2.272.992-2.72,2.656-2.672V3.52a2.669,2.669,0,0,0-2.656,1.648c0-.448-.032-1.264-.064-1.456H17.456c.016.7.016,1.424.016,2.256ZM31.088,8.352a4.842,4.842,0,0,0,.032-.7c0-2.064-.976-4.128-3.808-4.128-2.672,0-4,1.856-4,4.464,0,2.176,1.184,4.208,3.92,4.208A3.623,3.623,0,0,0,31.024,9.52H28.736a1.324,1.324,0,0,1-1.456.88c-1.136,0-1.664-1.008-1.664-2.048ZM25.664,6.944c.1-1.024.544-1.776,1.632-1.776,1.12,0,1.5.816,1.52,1.776ZM37.9,9.328a1.411,1.411,0,0,1-1.424,1.088c-.992,0-1.632-.8-1.632-2.576,0-1.6.592-2.512,1.648-2.512A1.3,1.3,0,0,1,37.92,6.464h2.224a3.262,3.262,0,0,0-3.6-2.944c-2.528,0-4.016,1.952-4.016,4.4,0,2.5,1.328,4.272,3.9,4.272a3.427,3.427,0,0,0,3.712-2.864ZM41.088,5.44h1.28V9.792c0,1.456.528,2.32,2.144,2.32a4.974,4.974,0,0,0,1.536-.16V10.384c-.16.016-.384.016-.512.016-.688,0-.88-.24-.88-.864V5.44h1.632V3.712H44.656V1.472H42.368v2.24h-1.28ZM47.712,12h2.3V3.712h-2.3Zm2.3-9.632V.32h-2.3V2.368Zm9.5,5.984a4.842,4.842,0,0,0,.032-.7c0-2.064-.976-4.128-3.808-4.128-2.672,0-4,1.856-4,4.464,0,2.176,1.184,4.208,3.92,4.208A3.623,3.623,0,0,0,59.456,9.52H57.168a1.324,1.324,0,0,1-1.456.88c-1.136,0-1.664-1.008-1.664-2.048ZM54.1,6.944c.1-1.024.544-1.776,1.632-1.776,1.12,0,1.5.816,1.52,1.776Zm6.32-3.232L63.232,12h2.4L68.56,3.712H66.272c-.72,2.4-1.52,4.9-1.76,6.256H64.5c-.16-.992-.816-3.44-1.6-6.256ZM73.392,3.52c-2.624,0-4.176,1.808-4.176,4.368,0,2.464,1.5,4.3,4.064,4.3,2.624,0,4.128-1.84,4.128-4.352C77.408,5.248,75.824,3.52,73.392,3.52Zm-.1,1.808c1.152,0,1.792.816,1.792,2.544,0,1.584-.624,2.528-1.76,2.528-1.1,0-1.792-.944-1.792-2.544C71.536,6.112,72.24,5.328,73.3,5.328ZM86.528,8.352a4.843,4.843,0,0,0,.032-.7c0-2.064-.976-4.128-3.808-4.128-2.672,0-4,1.856-4,4.464,0,2.176,1.184,4.208,3.92,4.208A3.623,3.623,0,0,0,86.464,9.52H84.176a1.324,1.324,0,0,1-1.456.88c-1.136,0-1.664-1.008-1.664-2.048ZM81.1,6.944c.1-1.024.544-1.776,1.632-1.776,1.12,0,1.5.816,1.52,1.776ZM88.32,12h2.3V8.384c0-2.272.992-2.72,2.656-2.672V3.52a2.669,2.669,0,0,0-2.656,1.648c0-.448-.032-1.264-.064-1.456H88.3c.016.7.016,1.424.016,2.256Zm6.4,0h2.3V3.712h-2.3Zm2.3-9.632V.32h-2.3V2.368ZM99.248,12h2.3V7.392c0-1.472.544-2.016,1.52-2.016,1.024,0,1.328.672,1.328,1.616V12h2.288V6.736c0-2.08-1.072-3.216-2.736-3.216a2.52,2.52,0,0,0-2.4,1.248c-.016-.256-.048-.832-.1-1.056H99.232c.016.624.016,1.392.016,2.1Zm17.168-5.9c0-.8.016-1.632.016-2.384h-2.16c-.016.144-.08.64-.1.864-.128-.384-.72-1.056-2.144-1.056-2.064,0-3.616,1.776-3.616,4.368,0,2.224,1.248,4.016,3.424,4.016a2.45,2.45,0,0,0,2.336-1.168v.4c0,1.616-.288,2.528-1.776,2.528a1.307,1.307,0,0,1-1.456-.96h-2.336c.08.944.672,2.624,3.7,2.624,3.136,0,4.112-1.68,4.112-4.336Zm-5.648,1.7c0-1.664.784-2.432,1.776-2.432,1.456,0,1.7.96,1.7,2.352s-.368,2.336-1.744,2.336C111.488,10.048,110.768,9.216,110.768,7.792Z" transform="translate(48.991 -0.32)" fill="#fff"/>
        <path id="Path_847" data-name="Path 847" d="M0,0H40" transform="translate(0 7.248)" fill="none" stroke="#11c6ff" stroke-linecap="square" stroke-width="4"/>
      </g>
      <g id="Group_560-2" data-name="Group 560" transform="translate(0 90.671)">
        <path id="Path_816" data-name="Path 816" d="M1.312,12H3.7V7.888H5.824c2.176,0,3.984-1.1,3.984-3.5,0-2.1-1.584-3.408-3.936-3.408H1.312ZM3.7,2.864H5.568c1.008,0,1.84.432,1.84,1.568,0,1.12-.784,1.552-1.888,1.552H3.7ZM11.408,12h2.3V8.384c0-2.272.992-2.72,2.656-2.672V3.52a2.669,2.669,0,0,0-2.656,1.648c0-.448-.032-1.264-.064-1.456H11.392c.016.7.016,1.424.016,2.256ZM21.424,3.52c-2.624,0-4.176,1.808-4.176,4.368,0,2.464,1.5,4.3,4.064,4.3,2.624,0,4.128-1.84,4.128-4.352C25.44,5.248,23.856,3.52,21.424,3.52Zm-.1,1.808c1.152,0,1.792.816,1.792,2.544,0,1.584-.624,2.528-1.76,2.528-1.1,0-1.792-.944-1.792-2.544C19.568,6.112,20.272,5.328,21.328,5.328Zm5.92-1.616v8.576c0,.9-.208,1.184-.944,1.184a.912.912,0,0,1-.208-.016V15.3c.192.016.5.032.7.032,2.272,0,2.752-1.136,2.752-3.5V3.712Zm2.3-1.344V.32h-2.3V2.368Zm9.5,5.984a4.842,4.842,0,0,0,.032-.7c0-2.064-.976-4.128-3.808-4.128-2.672,0-4,1.856-4,4.464,0,2.176,1.184,4.208,3.92,4.208A3.623,3.623,0,0,0,38.992,9.52H36.7a1.324,1.324,0,0,1-1.456.88c-1.136,0-1.664-1.008-1.664-2.048ZM33.632,6.944c.1-1.024.544-1.776,1.632-1.776,1.12,0,1.5.816,1.52,1.776Zm12.24,2.384a1.411,1.411,0,0,1-1.424,1.088c-.992,0-1.632-.8-1.632-2.576,0-1.6.592-2.512,1.648-2.512a1.3,1.3,0,0,1,1.424,1.136h2.224a3.262,3.262,0,0,0-3.6-2.944c-2.528,0-4.016,1.952-4.016,4.4,0,2.5,1.328,4.272,3.9,4.272a3.427,3.427,0,0,0,3.712-2.864ZM49.056,5.44h1.28V9.792c0,1.456.528,2.32,2.144,2.32a4.974,4.974,0,0,0,1.536-.16V10.384c-.16.016-.384.016-.512.016-.688,0-.88-.24-.88-.864V5.44h1.632V3.712H52.624V1.472H50.336v2.24h-1.28ZM55.712,9.3c0,.9,0,1.808-.016,2.7h2.192a3.751,3.751,0,0,0,.1-.784,2.239,2.239,0,0,0,2.176.976c2.384,0,3.6-2.112,3.6-4.48,0-2.32-1.12-4.192-3.376-4.192a2.59,2.59,0,0,0-2.368,1.072V.32h-2.3ZM61.44,7.76c0,1.568-.624,2.608-1.792,2.608C58.32,10.368,57.9,9.3,57.9,7.9c0-1.7.464-2.544,1.776-2.544C60.912,5.36,61.44,6.368,61.44,7.76Zm11.44.592a4.843,4.843,0,0,0,.032-.7c0-2.064-.976-4.128-3.808-4.128-2.672,0-4,1.856-4,4.464,0,2.176,1.184,4.208,3.92,4.208A3.623,3.623,0,0,0,72.816,9.52H70.528a1.324,1.324,0,0,1-1.456.88c-1.136,0-1.664-1.008-1.664-2.048ZM67.456,6.944c.1-1.024.544-1.776,1.632-1.776,1.12,0,1.5.816,1.52,1.776ZM82.3,6.1c0-.8.016-1.632.016-2.384H80.16c-.016.144-.08.64-.1.864-.128-.384-.72-1.056-2.144-1.056C75.856,3.52,74.3,5.3,74.3,7.888c0,2.224,1.248,4.016,3.424,4.016a2.45,2.45,0,0,0,2.336-1.168v.4c0,1.616-.288,2.528-1.776,2.528a1.307,1.307,0,0,1-1.456-.96H74.5c.08.944.672,2.624,3.7,2.624,3.136,0,4.112-1.68,4.112-4.336Zm-5.648,1.7c0-1.664.784-2.432,1.776-2.432,1.456,0,1.7.96,1.7,2.352s-.368,2.336-1.744,2.336C77.376,10.048,76.656,9.216,76.656,7.792Zm15.2.56a4.843,4.843,0,0,0,.032-.7c0-2.064-.976-4.128-3.808-4.128-2.672,0-4,1.856-4,4.464,0,2.176,1.184,4.208,3.92,4.208A3.623,3.623,0,0,0,91.792,9.52H89.5a1.324,1.324,0,0,1-1.456.88c-1.136,0-1.664-1.008-1.664-2.048ZM86.432,6.944c.1-1.024.544-1.776,1.632-1.776,1.12,0,1.5.816,1.52,1.776ZM95.9,12V.32H93.6V12Zm9.5-3.648a4.843,4.843,0,0,0,.032-.7c0-2.064-.976-4.128-3.808-4.128-2.672,0-4,1.856-4,4.464,0,2.176,1.184,4.208,3.92,4.208a3.623,3.623,0,0,0,3.792-2.672h-2.288a1.324,1.324,0,0,1-1.456.88c-1.136,0-1.664-1.008-1.664-2.048ZM99.984,6.944c.1-1.024.544-1.776,1.632-1.776,1.12,0,1.5.816,1.52,1.776ZM107.2,12h2.3V3.712h-2.3Zm2.3-9.632V.32h-2.3V2.368ZM117.024.32v4c-.176-.368-.816-.8-2.016-.8-2.352,0-3.76,1.856-3.76,4.4,0,2.592,1.328,4.272,3.424,4.272a2.494,2.494,0,0,0,2.352-1.056c.016.192.064.608.112.864h2.192c-.016-.752-.016-1.52-.016-2.272V.32ZM113.6,7.872c0-1.568.608-2.512,1.808-2.512,1.5,0,1.712,1.072,1.712,2.5,0,1.184-.192,2.5-1.76,2.5C114.224,10.352,113.6,9.488,113.6,7.872ZM121.5,12h2.3V3.712h-2.3Zm2.3-9.632V.32h-2.3V2.368ZM126.032,12h2.3V7.392c0-1.472.544-2.016,1.52-2.016,1.024,0,1.328.672,1.328,1.616V12h2.288V6.736c0-2.08-1.072-3.216-2.736-3.216a2.52,2.52,0,0,0-2.4,1.248c-.016-.256-.048-.832-.1-1.056h-2.224c.016.624.016,1.392.016,2.1ZM143.2,6.1c0-.8.016-1.632.016-2.384h-2.16c-.016.144-.08.64-.1.864-.128-.384-.72-1.056-2.144-1.056-2.064,0-3.616,1.776-3.616,4.368,0,2.224,1.248,4.016,3.424,4.016a2.45,2.45,0,0,0,2.336-1.168v.4c0,1.616-.288,2.528-1.776,2.528a1.307,1.307,0,0,1-1.456-.96h-2.336c.08.944.672,2.624,3.7,2.624,3.136,0,4.112-1.68,4.112-4.336Zm-5.648,1.7c0-1.664.784-2.432,1.776-2.432,1.456,0,1.7.96,1.7,2.352s-.368,2.336-1.744,2.336C138.272,10.048,137.552,9.216,137.552,7.792Z" transform="translate(48.991 -0.32)" fill="#fff"/>
        <path id="Path_846" data-name="Path 846" d="M0,0H40" transform="translate(0 7.248)" fill="none" stroke="#11c6ff" stroke-linecap="square" stroke-width="4"/>
      </g>
      <g id="Group_559-2" data-name="Group 559">
        <path id="Path_815" data-name="Path 815" d="M5.216,7.584c1.776,0,2.08.576,2.08,1.776v.16A7.887,7.887,0,0,0,7.52,12H9.792a8.327,8.327,0,0,1-.16-2.1V9.36c0-1.984-.832-2.544-1.376-2.752A2.649,2.649,0,0,0,9.856,4c0-1.712-1.3-3.024-3.7-3.024H1.312V12H3.648V7.584ZM3.648,2.864H5.7c1.168,0,1.76.512,1.76,1.408,0,.912-.512,1.408-1.808,1.408h-2ZM11.712,12h2.3V3.712h-2.3Zm2.3-9.632V.32h-2.3V2.368ZM15.584,9.5c.192,1.472,1.216,2.688,3.744,2.688,2.512,0,3.568-1.248,3.568-2.624,0-1.216-.4-2.16-3.168-2.8-1.344-.32-1.6-.512-1.6-.928,0-.368.256-.7,1.008-.7,1.072,0,1.28.576,1.36.88h2.176c-.064-1.12-.928-2.5-3.44-2.5-2.5,0-3.344,1.3-3.344,2.512,0,1.168.432,2,3.136,2.672,1.184.288,1.536.5,1.536,1.024,0,.512-.3.816-1.152.816A1.436,1.436,0,0,1,17.84,9.5ZM24.56,12h2.3V3.712h-2.3Zm2.3-9.632V.32h-2.3V2.368ZM34,9.328a1.411,1.411,0,0,1-1.424,1.088c-.992,0-1.632-.8-1.632-2.576,0-1.6.592-2.512,1.648-2.512a1.3,1.3,0,0,1,1.424,1.136H36.24a3.262,3.262,0,0,0-3.6-2.944c-2.528,0-4.016,1.952-4.016,4.4,0,2.5,1.328,4.272,3.9,4.272A3.427,3.427,0,0,0,36.24,9.328ZM41.632,3.52c-2.624,0-4.176,1.808-4.176,4.368,0,2.464,1.5,4.3,4.064,4.3,2.624,0,4.128-1.84,4.128-4.352C45.648,5.248,44.064,3.52,41.632,3.52Zm-.1,1.808c1.152,0,1.792.816,1.792,2.544,0,1.584-.624,2.528-1.76,2.528-1.1,0-1.792-.944-1.792-2.544C39.776,6.112,40.48,5.328,41.536,5.328ZM47.376,9.3c0,.9,0,1.808-.016,2.7h2.192a3.751,3.751,0,0,0,.1-.784,2.239,2.239,0,0,0,2.176.976c2.384,0,3.6-2.112,3.6-4.48,0-2.32-1.12-4.192-3.376-4.192A2.59,2.59,0,0,0,49.68,4.592V.32h-2.3ZM53.1,7.76c0,1.568-.624,2.608-1.792,2.608-1.328,0-1.744-1.072-1.744-2.464,0-1.7.464-2.544,1.776-2.544C52.576,5.36,53.1,6.368,53.1,7.76Zm11.44.592a4.843,4.843,0,0,0,.032-.7c0-2.064-.976-4.128-3.808-4.128-2.672,0-4,1.856-4,4.464,0,2.176,1.184,4.208,3.92,4.208A3.623,3.623,0,0,0,64.48,9.52H62.192a1.324,1.324,0,0,1-1.456.88c-1.136,0-1.664-1.008-1.664-2.048ZM59.12,6.944c.1-1.024.544-1.776,1.632-1.776,1.12,0,1.5.816,1.52,1.776ZM70.128,3.52c-2.624,0-4.176,1.808-4.176,4.368,0,2.464,1.5,4.3,4.064,4.3,2.624,0,4.128-1.84,4.128-4.352C74.144,5.248,72.56,3.52,70.128,3.52Zm-.1,1.808c1.152,0,1.792.816,1.792,2.544,0,1.584-.624,2.528-1.76,2.528-1.1,0-1.792-.944-1.792-2.544C68.272,6.112,68.976,5.328,70.032,5.328ZM79.664,3.52c-2.624,0-4.176,1.808-4.176,4.368,0,2.464,1.5,4.3,4.064,4.3,2.624,0,4.128-1.84,4.128-4.352C83.68,5.248,82.1,3.52,79.664,3.52Zm-.1,1.808c1.152,0,1.792.816,1.792,2.544,0,1.584-.624,2.528-1.76,2.528-1.1,0-1.792-.944-1.792-2.544C77.808,6.112,78.512,5.328,79.568,5.328ZM85.408,12h2.3V8.384c0-2.272.992-2.72,2.656-2.672V3.52a2.669,2.669,0,0,0-2.656,1.648c0-.448-.032-1.264-.064-1.456H85.392c.016.7.016,1.424.016,2.256ZM97.04.32v4c-.176-.368-.816-.8-2.016-.8-2.352,0-3.76,1.856-3.76,4.4,0,2.592,1.328,4.272,3.424,4.272a2.494,2.494,0,0,0,2.352-1.056c.016.192.064.608.112.864h2.192c-.016-.752-.016-1.52-.016-2.272V.32ZM93.616,7.872c0-1.568.608-2.512,1.808-2.512,1.5,0,1.712,1.072,1.712,2.5,0,1.184-.192,2.5-1.76,2.5C94.24,10.352,93.616,9.488,93.616,7.872Zm15.2.48a4.843,4.843,0,0,0,.032-.7c0-2.064-.976-4.128-3.808-4.128-2.672,0-4,1.856-4,4.464,0,2.176,1.184,4.208,3.92,4.208a3.623,3.623,0,0,0,3.792-2.672h-2.288a1.324,1.324,0,0,1-1.456.88c-1.136,0-1.664-1.008-1.664-2.048Zm-5.424-1.408c.1-1.024.544-1.776,1.632-1.776,1.12,0,1.5.816,1.52,1.776ZM112.864,12V.32h-2.3V12Zm2.208,0h2.3V3.712h-2.3Zm2.3-9.632V.32h-2.3V2.368ZM119.6,12h2.3V7.392c0-1.472.544-2.016,1.52-2.016,1.024,0,1.328.672,1.328,1.616V12h2.288V6.736c0-2.08-1.072-3.216-2.736-3.216a2.52,2.52,0,0,0-2.4,1.248c-.016-.256-.048-.832-.1-1.056h-2.224c.016.624.016,1.392.016,2.1Zm17.168-5.9c0-.8.016-1.632.016-2.384h-2.16c-.016.144-.08.64-.1.864-.128-.384-.72-1.056-2.144-1.056-2.064,0-3.616,1.776-3.616,4.368,0,2.224,1.248,4.016,3.424,4.016a2.45,2.45,0,0,0,2.336-1.168v.4c0,1.616-.288,2.528-1.776,2.528a1.307,1.307,0,0,1-1.456-.96H128.96c.08.944.672,2.624,3.7,2.624,3.136,0,4.112-1.68,4.112-4.336Zm-5.648,1.7c0-1.664.784-2.432,1.776-2.432,1.456,0,1.7.96,1.7,2.352s-.368,2.336-1.744,2.336C131.84,10.048,131.12,9.216,131.12,7.792Z" transform="translate(48.991 -0.32)" fill="#fff"/>
        <path id="Path_845" data-name="Path 845" d="M0,0H40" transform="translate(0 7.248)" fill="none" stroke="#11c6ff" stroke-linecap="square" stroke-width="4"/>
      </g>
    </g>
    <path id="Path_814" data-name="Path 814" d="M21.12,24h4.608V1.952H18.88c-1.856,5.632-4.256,13.376-4.8,16.256h-.032c-.672-3.264-2.592-10.5-4.32-16.256h-7.1V24H6.976V16.1c0-3.776-.1-8.32-.288-10.912h.16C7.808,9.6,10.08,17.952,11.712,24h4.064C17.888,17.088,20.1,9.76,21.12,5.248h.16c-.1,2.5-.16,6.72-.16,10.464Zm9.248,0h4.608V7.424H30.368ZM34.976,4.736V.64H30.368v4.1Zm4.416,2.688V24.576c0,1.792-.416,2.368-1.888,2.368a1.825,1.825,0,0,1-.416-.032v3.68c.384.032.992.064,1.408.064,4.544,0,5.5-2.272,5.5-7.008V7.424ZM44,4.736V.64H39.392v4.1ZM48.448,24h4.608V14.784c0-2.944,1.088-4.032,3.04-4.032,2.048,0,2.656,1.344,2.656,3.232V24h4.576V13.472c0-4.16-2.144-6.432-5.472-6.432-2.912,0-4.256,1.472-4.8,2.5-.032-.512-.1-1.664-.192-2.112H48.416c.032,1.248.032,2.784.032,4.192Zm26.208-4.992c.384,2.944,2.432,5.376,7.488,5.376,5.024,0,7.136-2.5,7.136-5.248,0-2.432-.8-4.32-6.336-5.6-2.688-.64-3.2-1.024-3.2-1.856,0-.736.512-1.408,2.016-1.408,2.144,0,2.56,1.152,2.72,1.76h4.352c-.128-2.24-1.856-4.992-6.88-4.992-4.992,0-6.688,2.592-6.688,5.024,0,2.336.864,4,6.272,5.344,2.368.576,3.072.992,3.072,2.048,0,1.024-.608,1.632-2.3,1.632s-2.784-.736-3.136-2.08Zm32.672-2.3a9.685,9.685,0,0,0,.064-1.408c0-4.128-1.952-8.256-7.616-8.256-5.344,0-8,3.712-8,8.928,0,4.352,2.368,8.416,7.84,8.416,5.184,0,7.008-3.328,7.584-5.344h-4.576c-.448.992-.992,1.76-2.912,1.76-2.272,0-3.328-2.016-3.328-4.1ZM96.48,13.888c.192-2.048,1.088-3.552,3.264-3.552,2.24,0,3.008,1.632,3.04,3.552ZM110.912,24h4.608V16.768c0-4.544,1.984-5.44,5.312-5.344V7.04c-2.816.032-4.576,1.408-5.312,3.3,0-.9-.064-2.528-.128-2.912H110.88c.032,1.408.032,2.848.032,4.512ZM122.784,7.424,128.416,24h4.8l5.856-16.576H134.5c-1.44,4.8-3.04,9.792-3.52,12.512h-.032c-.32-1.984-1.632-6.88-3.2-12.512ZM141.632,24h4.608V7.424h-4.608ZM146.24,4.736V.64h-4.608v4.1Zm14.272,13.92a2.821,2.821,0,0,1-2.848,2.176c-1.984,0-3.264-1.6-3.264-5.152,0-3.2,1.184-5.024,3.3-5.024a2.59,2.59,0,0,1,2.848,2.272h4.448c-.064-1.856-1.632-5.888-7.2-5.888-5.056,0-8.032,3.9-8.032,8.8,0,4.992,2.656,8.544,7.808,8.544,4.928,0,6.88-2.976,7.424-5.728ZM182.976,16.7a9.686,9.686,0,0,0,.064-1.408c0-4.128-1.952-8.256-7.616-8.256-5.344,0-8,3.712-8,8.928,0,4.352,2.368,8.416,7.84,8.416,5.184,0,7.008-3.328,7.584-5.344h-4.576c-.448.992-.992,1.76-2.912,1.76-2.272,0-3.328-2.016-3.328-4.1Zm-10.848-2.816c.192-2.048,1.088-3.552,3.264-3.552,2.24,0,3.008,1.632,3.04,3.552Zm13.312,5.12c.384,2.944,2.432,5.376,7.488,5.376,5.024,0,7.136-2.5,7.136-5.248,0-2.432-.8-4.32-6.336-5.6-2.688-.64-3.2-1.024-3.2-1.856,0-.736.512-1.408,2.016-1.408,2.144,0,2.56,1.152,2.72,1.76h4.352c-.128-2.24-1.856-4.992-6.88-4.992-4.992,0-6.688,2.592-6.688,5.024,0,2.336.864,4,6.272,5.344,2.368.576,3.072.992,3.072,2.048,0,1.024-.608,1.632-2.3,1.632s-2.784-.736-3.136-2.08Z" transform="translate(1645 2056.718)" fill="#fff"/>
  </g>
</svg>
